<?xml version="1.0" encoding="utf-8"?>
<!-- Generator: Adobe Illustrator 16.0.0, SVG Export Plug-In . SVG Version: 6.00 Build 0)  -->
<!DOCTYPE svg PUBLIC "-//W3C//DTD SVG 1.1//EN" "http://www.w3.org/Graphics/SVG/1.1/DTD/svg11.dtd">
<svg version="1.1" id="Layer_1" xmlns="http://www.w3.org/2000/svg" xmlns:xlink="http://www.w3.org/1999/xlink" x="0px" y="0px"
	 width="256px" height="256px" viewBox="0 0 256 256" enable-background="new 0 0 256 256" xml:space="preserve">
<g>
	<path fill-rule="evenodd" clip-rule="evenodd" fill="#E3E0D7" d="M-2.994,82.753c-0.083,0.109-0.165,0.217-0.248,0.325
		c-0.088-0.102-0.188-0.196-0.255-0.31c-0.016-0.027,0.094-0.177,0.12-0.17C-3.245,82.631-3.121,82.698-2.994,82.753z"/>
	<path fill-rule="evenodd" clip-rule="evenodd" fill="#F8F8F5" d="M9.516,86.264c0.682-3.608,2.604-6.795,3.516-10.324l-0.016,0.001
		c0.162-0.17,0.324-0.34,0.485-0.51c4.65-9.235,9.849-18.106,16.415-26.159c8.188-10.04,17.595-18.685,28.252-26.046
		c8.021-5.54,16.714-9.694,25.73-13.256c0.827-0.327,1.737-0.447,2.608-0.663c0.361,0.157,0.745,0.487,1.079,0.444
		c7.118-0.914,14.107-2.596,21.279-3.29c4.167-0.404,8.162-1.103,11.718,1.74c2.681,2.144,5.274,4.4,7.928,6.58
		c0.465,0.383,0.936,0.721,0.797,1.389c-0.161,0.781-0.776,0.986-1.479,1.034c-1.383,0.095-2.808-0.209-4.14,0.379
		c-0.625,0.276-1.736-0.25-1.849,0.75c-0.086,0.778,0.819,1.125,1.464,1.495c0.685,0.394,1.775,0.631,1.511,1.658
		c-0.273,1.064-1.425,0.428-2.125,0.705c-1.308,0.519-3.751-0.141-3.776,1.418c-0.028,1.758-1.922,2.69-1.59,3.638
		c0.962,2.744-1.072,2.037-2.213,2.279c-1.354,0.287-2.751,0.364-4.123,0.572c-1.082,0.164-1.862,0.657-1.779,1.922
		c-3.103-0.276-5.987,0.719-8.886,1.571c-0.867,0.255-1.9,0.691-1.115,1.888c1.019,1.553-0.087,1.769-1.151,2.142
		c-1.208,0.424-2.401,0.4-3.623,0.086c-1.792-0.461-3.581-0.434-5.303,0.277c-1.052,0.435-1.982,0.992-1.014,2.368
		c0.702,0.999-0.01,1.463-0.8,1.875c-2.611,1.36-5.206,2.765-8.201,3.113c-2.606-1.852-2.552-2.364,0.363-3.89
		c1.347-0.706,2.869-1.166,3.797-2.474c-0.371-0.988-1.951-0.066-1.901-1.173c0.042-0.913,1.007-1.424,1.798-1.886
		c0.564-0.33,1.155-0.636,1.661-1.042c0.49-0.394,0.767-0.928,0.065-1.408c-1.932-1.32-1.142-2.149,0.483-2.875
		c0.438-0.195,0.982-0.458,0.813-1.051c-0.173-0.608-0.797-0.427-1.264-0.477c-1.675-0.18-3.249,0.334-4.836,0.733
		c-0.438,0.11-0.818,0.074-1.102-0.292c-0.243-0.313-0.165-0.676,0.13-0.857c1.403-0.861,2.029-2.589,3.694-3.182
		c2.007-0.715,3.972-1.549,5.951-2.338c0.586-0.233,1.449-0.289,1.409-1.119c-0.036-0.755-0.842-0.982-1.445-1.159
		c-2.596-0.761-5.212-1.449-7.816-2.181c-3.235-0.909-6.336-0.658-9.268,1.051c-6.927,4.036-13.913,7.952-20.662,12.314
		c-4.306,2.782-8.437,5.665-11.959,9.323c-2.832,2.941-5.412,6.143-7.927,9.366c-5.518,7.07-10.534,14.531-13.696,22.941
		c-3.484,9.269-5.777,18.928-7.84,28.619c-0.357,1.679-0.868,3.375-0.282,5.093c1.338,3.918,3.536,7.386,5.817,10.799
		c0.35,0.521,0.837,1.105,1.585,1.026c0.92-0.099,0.669-0.985,0.909-1.542c0.507-1.182,0.408-2.436,0.329-3.652
		c-0.19-2.95,1.163-5.148,3.3-7.422c0.142,1.971,0.202,3.594,0.411,5.197c0.063,0.484,0.089,1.307,0.836,1.335
		c0.735,0.027,0.771-0.683,0.917-1.239c0.221-0.846,0.49-2.281,1.54-1.689c2.832,1.596,2.356-0.925,2.721-2.065
		c0.854-2.667,1.057-2.831,3.391-1.456c0.375-1.353,0.706-2.694,1.123-4.009c0.9-2.841,1.182-2.915,3.543-1.08
		c0.128,2.792-0.068,5.536-0.934,8.227c-0.276,0.86-0.527,1.598-1.527,1.6c-2.647,0.008-2.478,1.865-2.331,3.595
		c0.169,1.989,1.416,3.637,1.955,5.517c0.459,1.6,0.479,3.017-1.784,2.969c-1.044-0.021-1.24,0.635-1.273,1.411
		c-0.049,1.144,0.097,2.305-0.049,3.431c-0.295,2.262,0.445,3.737,2.704,4.462c1.536,0.491,2.499,1.538,2.253,3.322
		c-7.608,1.877-12.094,10.267-12.681,16.585c-0.092,0.984,0.45,2.227,1.558,2.577c1.936,0.611,3.667,1.654,5.689,2.152
		c3.935,0.971,7.883,0.822,11.847,0.885c0.359,0.16,0.722,0.468,1.076,0.456c2.021-0.066,2.235,0.726,2.077,2.695
		c-0.169,2.114-1.086,3.835-1.673,5.729c-3.071,0.744-6.227,0.19-9.299,0.549c-5.046,0.589-8.295-1.963-11.306-5.488
		c-2.059-2.41-3.837-5.126-6.661-6.833c-3.413-2.063-5.454-5.159-6.283-9.024c-1.248-5.825-2.573-11.636-2.969-17.609
		c-0.253-3.828-0.868-7.646-0.902-11.472c-0.028-2.999,0.533-6.011,0.927-9.004c0.679-5.17,0.641-10.412,2.202-15.506
		C8.946,90.758,10.285,88.64,9.516,86.264z"/>
	<path fill-rule="evenodd" clip-rule="evenodd" fill="#F6F5F2" d="M109.209,32.018c-0.083-1.266,0.697-1.759,1.779-1.922
		c1.372-0.208,2.77-0.285,4.123-0.572c1.141-0.242,3.175,0.465,2.213-2.279c-0.333-0.947,1.562-1.879,1.59-3.638
		c0.025-1.559,2.469-0.899,3.776-1.418c0.7-0.277,1.852,0.359,2.125-0.705c0.264-1.027-0.826-1.264-1.511-1.658
		c-0.645-0.37-1.55-0.717-1.464-1.495c0.113-1,1.223-0.473,1.849-0.75c1.332-0.589,2.756-0.284,4.14-0.379
		c0.703-0.048,1.318-0.253,1.479-1.034c0.139-0.668-0.332-1.006-0.797-1.389c-2.654-2.179-5.247-4.436-7.928-6.58
		c-3.556-2.843-7.551-2.144-11.718-1.74c-7.172,0.694-14.161,2.376-21.279,3.29c-0.334,0.043-0.718-0.287-1.079-0.444
		c5.319-2.45,11.048-3.499,16.677-4.894c0.383-0.095,0.736-0.305,1.103-0.462c1.054-0.121,2.114-0.199,3.159-0.368
		c5.488-0.886,11.02-1.299,16.562-1.615c0.128,0.529,0.434,0.942,1.001,0.9c5.047-0.375,9.902,1.143,14.868,1.493
		c5.123,0.362,10.155,1.39,14.77,3.414c6.293,2.762,12.507,5.779,18.786,8.555c5.221,2.307,7.159,6.682,9.57,11.008
		c0.243,0.437,0.322,0.984-0.108,1.363c-0.363,0.32-0.781,0.059-1.133-0.129c-3.325-1.783-6.787-3.059-10.637-2.968
		c-0.518,0.013-1.151-0.686-1.526,0.047c-0.34,0.664,0.109,1.344,0.635,1.716c0.797,0.565,1.711,0.967,2.581,1.428
		c1.225,0.648,2.312,1.421,2.811,2.742c-0.436,0.425-0.732,0.207-1.034,0.111c-1.761-0.562-3.942-2.548-4.414,1.307
		c-0.021,0.167-0.364,0.439-0.531,0.42c-1.93-0.206-3.606,0.8-5.425,1.07c-0.931,0.139-1.827-0.275-2.284-1.161
		c-0.53-1.028-1.279-1.51-2.392-1.162c-1.207,0.377-2.438,0.928-2.436,2.416c0.007,2.081-1.006,2.087-2.527,1.523
		c-3.103-1.15-6.219-2.337-9.36-0.095c-1.165-1.083-2.62-1.837-4.067-2.16c-1.944-0.433-4.263-1.725-5.736,1.158
		c-0.434,0.848-1.691,0.658-2.517,0.442c-1.895-0.496-3.926-0.24-5.742-1.095c-0.74-0.35-1.472-0.353-2.007,0.307
		c-0.915,1.126-2.134,1.279-3.472,1.457c-2.727,0.363-5.5,0.622-8.031,1.863C112.405,35.788,111.586,33.318,109.209,32.018z"/>
	<path fill-rule="evenodd" clip-rule="evenodd" fill="#DAD6CA" d="M13.501,75.431c-0.161,0.17-0.323,0.34-0.485,0.51
		C13.178,75.771,13.34,75.601,13.501,75.431z"/>
	<path fill-rule="evenodd" clip-rule="evenodd" fill="#F6F5F2" d="M9.516,86.264c0.769,2.375-0.57,4.494-1.196,6.537
		c-1.562,5.095-1.523,10.336-2.202,15.506c-0.394,2.993-0.955,6.005-0.927,9.004c0.034,3.826,0.649,7.644,0.902,11.472
		c0.396,5.974,1.721,11.784,2.969,17.609c0.829,3.865,2.87,6.961,6.283,9.024c2.824,1.707,4.602,4.423,6.661,6.833
		c3.011,3.525,6.259,6.077,11.306,5.488c3.072-0.358,6.228,0.195,9.299-0.549c1.665,0.038,3.329,0.07,4.934-0.493
		c-0.066,1.663-0.528,3.165-2.336,3.594c-2.326,0.551-1.94,1.668-1.154,3.364c1.045,2.259,3.183,4.062,2.997,6.855
		c-2.244-0.07-2.421,0.896-1.253,2.52c1.291,1.792,2.625,3.557,3.88,5.374c0.616,0.892,1.344,2.01-0.445,2.406
		c-1.396,0.311-1.061,1.042-0.553,1.746c0.938,1.301,1.195,2.103-0.877,2.385c-1.084,0.147-0.4,1.062-0.114,1.545
		c0.539,0.908,1.64,1.586,1.669,2.675c0.063,2.423,1.652,3.809,3.148,5.339c0.658,0.674,1.754,1.159,1.683,2.591
		c-2.568-0.803-3.725-2.951-5.433-4.417c-1.111-0.953-1.93-2.282-3.423-2.738c-0.693-0.212-1.53-0.491-1.999,0.304
		c-0.425,0.723,0.245,1.225,0.706,1.658c1.33,1.248,2.441,2.656,3.244,4.295c0.304,0.619,0.371,1.282-0.07,1.867
		c-0.484,0.641-1.12,0.514-1.781,0.272c-2.878-1.057-5.45-2.507-7.471-4.926c-2.045-2.447-3.975-5.168-6.515-6.986
		c-4.34-3.104-7.163-7.419-9.998-11.62c-6.077-9.01-10.605-18.835-13.397-29.381c-1.358-5.129-2.98-10.175-3.561-15.526
		c-0.528-4.872-1.126-9.729-1.347-14.626c-0.036-0.79,0.199-1.718-0.945-1.983c-0.024-1.314-0.049-2.628-0.073-3.941
		c0.504-3.455,0.958-6.918,1.523-10.363C4.92,101.233,6.434,93.545,9.516,86.264z"/>
	<path fill-rule="evenodd" clip-rule="evenodd" fill="#F3F2EC" d="M2.197,123.283c1.144,0.265,0.909,1.193,0.945,1.983
		c0.221,4.896,0.819,9.754,1.347,14.626c0.58,5.352,2.203,10.397,3.561,15.526c2.792,10.546,7.32,20.371,13.397,29.381
		c2.835,4.201,5.658,8.516,9.998,11.62c2.541,1.818,4.47,4.539,6.515,6.986c2.021,2.419,4.593,3.869,7.471,4.926
		c0.661,0.241,1.297,0.368,1.781-0.272c0.44-0.585,0.374-1.248,0.07-1.867c-0.802-1.639-1.914-3.047-3.244-4.295
		c-0.461-0.434-1.131-0.936-0.706-1.658c0.468-0.795,1.306-0.516,1.999-0.304c1.493,0.456,2.312,1.785,3.423,2.738
		c1.708,1.466,2.865,3.614,5.433,4.417c0.072-1.432-1.024-1.917-1.683-2.591c-1.496-1.53-3.084-2.916-3.148-5.339
		c-0.029-1.089-1.13-1.767-1.669-2.675c-0.286-0.483-0.97-1.397,0.114-1.545c2.072-0.282,1.815-1.084,0.877-2.385
		c-0.507-0.704-0.843-1.436,0.553-1.746c1.789-0.396,1.061-1.515,0.445-2.406c-1.256-1.817-2.589-3.582-3.88-5.374
		c-1.168-1.623-0.991-2.59,1.253-2.52c0.396,0.104,0.793,0.203,1.187,0.314c1.097,0.308,2.217,0.316,2.938-0.636
		c0.733-0.968-0.017-1.872-0.539-2.69c-0.75-1.175-1.588-2.295-2.334-3.473c-1.901-3.001-1.002-4.729,2.661-4.828
		c2.91-0.079,5.657,0.726,8.258,2.077c1.109,0.575,1.682,1.393,2.127,2.535c1.126,2.897,2.404,6.073,5.063,7.572
		c3.3,1.861,6.701,3.331,9.359,6.23c1.189,1.294,2.835,2.207,3.65,3.878c0.7,1.436,1.792,2.464,3.349,2.612
		c2.925,0.278,5.218,1.813,7.534,3.374c2.103,1.416,4.232,2.791,6.327,4.22c0.902,0.614,1.908,0.81,2.76,0.232
		c0.875-0.593,0.206-1.497,0-2.252c-0.802-2.924-2.013-5.678-3.499-8.314c3.717,1.228,6.687,3.665,9.691,6.033
		c0.791,0.622,0.646,1.285-0.018,2.091c-1.867,2.26-2.212,4.821-1.248,7.609c0.721,2.086,1.263,4.233,1.979,6.321
		c0.46,1.341,0.182,1.963-1.306,2.152c-1.448,0.185-2.958,0.374-4.176,1.303c-0.634,0.483-1.475,0.99-1.318,1.93
		c0.149,0.891,1.14,0.824,1.788,1.069c0.916,0.346,1.906,0.488,2.834,0.805c0.84,0.286,2.402,0.464,2.303,1.128
		c-0.459,3.072,1.962,2.378,3.437,2.911c0.698,0.253,1.395,0.457,1.922,1.035c0.623,0.684,1.112,1.142-0.2,1.769
		c-1.945,0.93-3.754,2.145-5.799,3.341c2.187,1.604,4.389,2.37,6.811,2.413c1.184,0.021,2.289,0.258,3.329,0.754
		c0.484,0.233,1.097,0.605,0.839,1.307c-0.21,0.566-0.843,0.47-1.294,0.41c-2.915-0.379-5.826-0.784-8.732-1.225
		c-2.212-0.337-4.394-0.362-6.577,0.308c4.991,1.801,10.164,2.44,15.35,2.856c2.324,0.188,4.074,1.108,5.52,2.788
		c0.521,0.606,1.175,1.327,0.757,2.188c-0.398,0.819-1.316,0.487-2.012,0.49c-5.845,0.025-11.542-1.133-17.226-2.307
		c-8.751-1.808-17.019-5.45-25.854-6.934c-4.094-0.688-7.354-3.155-10.976-4.854c-5.971-2.802-11.159-6.883-16.676-10.41
		c-6.322-4.044-11.3-9.788-16.395-15.166c-6.813-7.192-12.312-15.556-16.834-24.409c-4.747-9.291-8.564-18.973-10.744-29.24
		c-0.213-1.002,0.047-2.411-1.414-2.867C2.098,139.134,2.042,131.215,2.197,123.283z"/>
	<path fill-rule="evenodd" clip-rule="evenodd" fill="#EFECE6" d="M3.649,146.961c1.461,0.456,1.201,1.865,1.414,2.867
		c2.18,10.268,5.997,19.949,10.744,29.24c4.523,8.854,10.022,17.217,16.834,24.409c5.095,5.378,10.072,11.122,16.395,15.166
		c5.517,3.527,10.705,7.608,16.676,10.41c3.621,1.699,6.882,4.167,10.976,4.854c8.836,1.483,17.103,5.126,25.854,6.934
		c5.684,1.174,11.38,2.332,17.226,2.307c0.696-0.003,1.614,0.329,2.012-0.49c0.417-0.86-0.236-1.581-0.757-2.188
		c-1.445-1.68-3.196-2.601-5.52-2.788c-5.186-0.416-10.358-1.056-15.35-2.856c2.183-0.67,4.365-0.645,6.577-0.308
		c2.906,0.44,5.818,0.846,8.732,1.225c0.451,0.06,1.083,0.156,1.294-0.41c0.258-0.701-0.354-1.073-0.839-1.307
		c-1.04-0.496-2.145-0.733-3.329-0.754c-2.422-0.043-4.624-0.809-6.811-2.413c2.044-1.196,3.854-2.411,5.799-3.341
		c1.312-0.627,0.823-1.085,0.2-1.769c-0.527-0.578-1.224-0.782-1.922-1.035c-1.475-0.533-3.896,0.161-3.437-2.911
		c0.099-0.664-1.463-0.842-2.303-1.128c-0.928-0.316-1.919-0.459-2.834-0.805c-0.648-0.245-1.639-0.179-1.788-1.069
		c-0.157-0.939,0.685-1.446,1.318-1.93c1.219-0.929,2.729-1.118,4.176-1.303c1.488-0.189,1.767-0.812,1.306-2.152
		c-0.717-2.088-1.259-4.235-1.979-6.321c-0.964-2.788-0.619-5.35,1.248-7.609c0.665-0.806,0.809-1.469,0.018-2.091
		c-3.004-2.368-5.974-4.806-9.691-6.033c-1.018-1.406-2.289-2.531-3.659-3.599c-7.135-5.559-13.525-11.773-18.649-19.355
		c-6.382-9.443-9.422-20.007-10.598-31.038c-1.097-10.299,0.834-20.416,4.7-30.067c0.546-1.362,0.841-3.057,2.487-3.762
		c-1.937,5.634-3.939,11.252-4.33,17.273c-0.821,3.92-0.449,7.897-0.558,11.851c-0.615,0.593-0.495,1.368-0.462,2.09
		c0.29,6.335,1.371,12.547,3.587,18.479c0.515,1.379,0.569,3.295,2.311,4.087c0.406,2.271,1.875,4.007,2.978,5.927
		c0.001,1.518,0.637,2.675,1.957,3.443c0.336,0.497,0.671,0.99,1.006,1.486c0.027,0.611,0.351,0.936,0.956,0.992
		c0.01,0.162,0.021,0.323,0.032,0.485c0.242,1.146,0.49,2.284,1.953,2.459l0.018,0.018c0.548,1.635,1.443,3.01,2.951,3.922
		l0.016,0.017c0.613,1.021,1.437,1.834,2.451,2.456c0.335,0.658,0.833,1.154,1.492,1.487c0.506,1.006,1.273,1.581,2.45,1.476
		c0.33,0.337,0.659,0.673,0.989,1.008c0.096,0.922,0.757,0.985,1.471,0.971c0.169,0.169,0.338,0.337,0.507,0.504
		c-0.003,1.674,0.95,2.55,2.464,2.958c0.038,0.927,0.671,1.489,1.31,1.994c4.011,3.164,8.383,5.703,13.229,7.362
		c9.284,3.179,18.752,4.063,28.555,3.082c8.059-0.807,15.646-3.097,22.789-6.535c11.938-5.747,21.183-14.689,28.221-25.92
		c6.716-10.718,9.624-22.58,9.855-35.029c0.103-5.576-0.79-11.218-2.13-16.734c-1.188-4.899-3.629-9.305-5.137-14.067
		c0.667,0.045,0.989,0.505,1.256,1.039c2.114,4.226,4.819,8.176,5.823,12.916c0.162,0.769,0.372,1.787,1.568,2.054
		c0.333-1.717-1.015-3.163-0.601-4.81c0.71-2.83,0.982-5.736,0.72-8.61c-0.446-4.877,2.684-7.7,7.542-6.795
		c11.234,2.089,20.899,7.851,30.841,12.977c2.099,1.083,4.064,2.489,6.545,2.567c1.824,0.058,2.542-1.04,2.363-2.665
		c-0.267-2.431-0.661-4.851-1.086-7.261c-2.295-13.04-6.692-25.344-13.054-36.946c-5.422-9.889-12.091-18.901-19.646-27.239
		c-5.296-5.845-11.289-10.938-17.747-15.492c-1.034-0.729-2.545-1.35-2.565-3.056c0.477,0.161,0.954,0.323,1.43,0.483
		c1.991,2.221,4.793,3.332,7.071,5.17c3.029,2.442,6.165,4.754,9.255,7.122c1.226,1.729,3.44,2.454,4.465,4.39
		c0.865,2.89,3.334,4.603,5.114,6.797c4.497,5.545,8.904,11.167,12.346,17.419c6.474,11.765,11.656,24.066,14.292,37.319
		c0.878,4.41,1.909,8.812,1.766,13.347c-0.11,3.453-4.204,5.662-6.954,3.649c-2.903-2.125-5.882-4.091-8.928-6.013
		c-6.849-4.321-14.009-7.799-21.896-9.671c-3.722-0.883-5.401,0.441-5.601,4.268c-0.189,3.614,0.152,7.208,0.872,10.739
		c1.594,7.808,0.353,15.664,0.537,23.494c0.007,0.236-0.108,0.477-0.169,0.715c-1.083,4.194-2.052,8.424-3.283,12.575
		c-1.256,4.235-2.244,8.697-5.009,12.221c-2.191,2.793-4.043,5.758-5.904,8.741c-5.853,9.384-14.568,15.875-23.066,22.512
		c-7.176,5.604-16.223,6.933-24.644,9.439c-4.176,1.242-8.854,1.039-13.287,1.668c-0.949,0.135-1.727,0.334-1.426,1.438
		c0.368,1.354-0.261,1.55-1.363,1.544c-4.025-0.021-7.969,0.536-11.912,1.389c-3.959,0.857-5.236,3.123-3.494,6.77
		c0.955,1.997,1.79,4.038,3.449,5.614c0.592,0.563,1.072,1.45,0.822,2.239c-0.708,2.228,0.561,3.764,1.644,5.382
		c2.323,3.471,4.539,7.024,7.061,10.345c1.32,1.738,1.239,3.366,0.456,5.021c-0.765,1.611-2.419,1.812-4.051,1.711
		c-6.529-0.404-13.079-0.81-19.48-2.141c-19.158-3.982-36.959-11.04-52.749-22.952c-7.2-5.432-13.623-11.626-19.619-18.227
		c-6.286-6.92-11.427-14.76-15.787-23.079c-0.604-1.154-0.959-2.676-2.501-3.158c-2.88-5.766-4.569-11.952-6.383-18.095
		c-0.274-0.927-0.382-1.908-0.979-2.719C5.212,153.724,3.636,150.459,3.649,146.961z"/>
	<path fill-rule="evenodd" clip-rule="evenodd" fill="#EAE8E2" d="M12.518,178.042c1.542,0.482,1.897,2.004,2.501,3.158
		c4.359,8.319,9.5,16.159,15.787,23.079c5.997,6.601,12.419,12.795,19.619,18.227c15.789,11.912,33.591,18.97,52.749,22.952
		c6.401,1.331,12.951,1.736,19.48,2.141c1.631,0.101,3.286-0.1,4.051-1.711c0.783-1.655,0.864-3.283-0.456-5.021
		c-2.522-3.32-4.738-6.874-7.061-10.345c-1.083-1.618-2.352-3.154-1.644-5.382c0.25-0.789-0.23-1.676-0.822-2.239
		c-1.659-1.576-2.494-3.617-3.449-5.614c-1.742-3.646-0.466-5.912,3.494-6.77c3.943-0.853,7.887-1.409,11.912-1.389
		c1.103,0.006,1.731-0.19,1.363-1.544c-0.301-1.104,0.477-1.304,1.426-1.438c4.433-0.629,9.111-0.426,13.287-1.668
		c8.421-2.507,17.468-3.836,24.644-9.439c8.498-6.637,17.214-13.128,23.066-22.512c1.861-2.983,3.713-5.948,5.904-8.741
		c2.765-3.523,3.753-7.985,5.009-12.221c1.231-4.151,2.2-8.381,3.283-12.575c0.061-0.238,0.176-0.479,0.169-0.715
		c-0.185-7.83,1.057-15.686-0.537-23.494c-0.72-3.531-1.062-7.125-0.872-10.739c0.199-3.827,1.879-5.151,5.601-4.268
		c7.888,1.872,15.048,5.35,21.896,9.671c3.046,1.922,6.024,3.888,8.928,6.013c2.75,2.013,6.844-0.196,6.954-3.649
		c0.144-4.535-0.888-8.937-1.766-13.347c-2.636-13.253-7.818-25.555-14.292-37.319c-3.441-6.251-7.849-11.874-12.346-17.419
		c-1.78-2.194-4.249-3.908-5.114-6.797c0.643,0.183,1.287,0.366,1.931,0.549l0.003,0.003c0.16,1.151,0.771,1.852,1.966,1.967
		l-0.023,0.062c0.267,0.583,0.395,1.304,0.819,1.726c3.466,3.441,6.313,7.415,9.592,11.013c4.561,6.571,8.952,13.245,12.374,20.501
		c1.634,3.465,3.326,6.905,4.504,10.564c-1.069,2.156,0.398,3.949,0.947,5.815c2.007,6.827,3.996,13.644,4.489,20.792
		c-0.742,3.53-1.41,7.077-2.243,10.584c-1.184,4.99-1.742,10.154-4.169,14.813c-0.421,0.807-0.078,2.008-1.431,2.24
		c-1.311,0.224-1.924-0.575-2.515-1.535c-1.99-3.247-3.817-6.476-6.506-9.39c-4.274-4.631-7.217-10.442-11.901-14.844
		c-0.673-0.632-1.174-1.312-2.209-1.324c-3.802-0.041-5.408,1.278-6.171,5.081c-0.645,3.21-0.126,6.466-0.428,9.697
		c-0.514,5.504-1.104,10.993-1.776,16.484c-1.08,8.796-4.07,16.871-7.813,24.685c-4.533,9.46-10.906,17.594-18.825,24.608
		c-7.152,6.334-15.168,11.193-23.798,15.014c-8.098,3.584-16.65,5.847-25.457,7.033c-0.97,0.131-1.933,0.439-2.898,0.437
		c-3.754-0.008-7.389,0.459-10.939,1.809c-1.948,0.74-2.093,1.875-1.358,3.437c1.836,3.902,3.635,7.604,7.874,9.873
		c5.087,2.722,10.35,4.416,15.989,5.141c1.671,0.216,3.686-0.607,4.308,1.977c0.131,0.544,0.98,0.426,1.545,0.524
		c2.626,0.455,4.75-0.772,6.886-1.982c1.043,1.398,1.772,3.153,4.047,2.94c4.263-0.399,7.291-3.626,7.292-7.88
		c-0.494-0.655-0.986-1.31-1.481-1.964c4.229,0.925,5.591,5.45,2.779,8.87c-1.018,1.237-2.859,1.673-3.264,3.458
		c-1.195-0.136-2.32,0.209-3.453,0.496c-1.557-0.049-3.115-0.06-4.667-0.175c-0.514-0.038-0.871-0.03-1.324,0.31
		c-2.11,1.587-4.687,2.275-7.083,3.191c-3.953,1.508-8.047,2.801-12.193,3.604c-6.559,1.27-12.502,4.56-19.79,3.688
		c-8.375-1.002-16.74-1.92-24.887-3.994c-16.139-4.108-30.877-11.328-44.37-21.081c-0.702-0.509-1.335-0.93-2.222-0.784
		c-4.699-3.614-8.864-7.786-12.855-12.154c-1.033-1.131-1.868-2.505-3.311-3.23c-0.667-1.995-2.284-3.338-3.516-4.916
		c-3.428-4.392-6.076-9.289-9.29-13.813l0.002,0.01c-1.671-3.432-3.343-6.862-5.014-10.294
		C13.138,179.723,12.828,178.882,12.518,178.042z"/>
	<path fill-rule="evenodd" clip-rule="evenodd" fill="#FAFAF8" d="M35.703,101.577c-2.361-1.834-2.643-1.761-3.543,1.08
		c-0.417,1.315-0.748,2.656-1.123,4.009c-2.333-1.375-2.537-1.211-3.391,1.456c-0.365,1.141,0.111,3.662-2.721,2.065
		c-1.05-0.592-1.318,0.844-1.54,1.689c-0.146,0.557-0.181,1.267-0.917,1.239c-0.747-0.029-0.773-0.852-0.836-1.335
		c-0.208-1.604-0.269-3.226-0.411-5.197c-2.137,2.274-3.49,4.472-3.3,7.422c0.079,1.216,0.178,2.47-0.329,3.652
		c-0.239,0.557,0.011,1.443-0.909,1.542c-0.748,0.08-1.235-0.504-1.585-1.026c-2.281-3.413-4.479-6.88-5.817-10.799
		c-0.586-1.717-0.076-3.414,0.282-5.093c2.063-9.691,4.355-19.35,7.84-28.619c3.162-8.41,8.178-15.871,13.696-22.941
		c2.515-3.223,5.095-6.425,7.927-9.366c3.522-3.658,7.654-6.541,11.959-9.323c6.749-4.362,13.735-8.278,20.662-12.314
		c2.932-1.708,6.032-1.959,9.268-1.051c2.604,0.732,5.22,1.42,7.816,2.181c0.603,0.177,1.409,0.404,1.445,1.159
		c0.041,0.831-0.823,0.886-1.409,1.119c-1.979,0.789-3.944,1.623-5.951,2.338c-1.665,0.593-2.291,2.321-3.694,3.182
		c-0.294,0.181-0.373,0.545-0.13,0.857c0.284,0.366,0.664,0.402,1.102,0.292c1.587-0.399,3.161-0.913,4.836-0.733
		c0.466,0.049,1.091-0.131,1.264,0.477c0.168,0.593-0.375,0.855-0.813,1.051c-1.625,0.726-2.415,1.555-0.483,2.875
		c0.702,0.48,0.424,1.015-0.065,1.408c-0.506,0.406-1.096,0.712-1.661,1.042c-0.791,0.461-1.756,0.973-1.798,1.886
		c-0.05,1.107,1.53,0.185,1.901,1.173c-0.928,1.308-2.45,1.768-3.797,2.474c-2.916,1.526-2.969,2.039-0.363,3.89
		c0.263,1.665-0.452,2.698-1.862,3.62c-1.937,1.267-4.425,2.102-5.07,4.709c-0.512,2.071-1.87,3.483-3.448,4.632
		c-1.736,1.263-3.285,2.46-2.989,4.912c0.073,0.604-0.387,1.061-0.803,1.468c-5.481,5.355-9.706,11.701-14.101,17.912
		c-0.478,0.674-0.995,1.504-1.811,1.576c-1.65,0.145-2.074,1.363-2.69,2.522c-0.996,1.869-1.433,4.346-3.408,5.292
		c-2.895,1.388-3.381,4.054-4.192,6.53C38.197,100.176,37.5,101.325,35.703,101.577z"/>
	<path fill-rule="evenodd" clip-rule="evenodd" fill="#FBF7F2" d="M35.703,101.577c1.797-0.252,2.494-1.401,3.039-3.064
		c0.811-2.476,1.298-5.143,4.192-6.53c1.975-0.946,2.413-3.423,3.408-5.292c0.617-1.159,1.04-2.377,2.69-2.522
		c0.816-0.072,1.333-0.902,1.811-1.576c4.396-6.211,8.62-12.557,14.101-17.912c0.417-0.407,0.876-0.864,0.803-1.468
		C65.452,60.76,67,59.563,68.737,58.3c1.578-1.149,2.936-2.561,3.448-4.632c0.645-2.608,3.133-3.442,5.07-4.709
		c1.41-0.922,2.125-1.956,1.862-3.62c2.996-0.348,5.59-1.752,8.201-3.113c0.79-0.412,1.502-0.876,0.8-1.875
		c-0.968-1.376-0.038-1.933,1.014-2.368c1.722-0.711,3.511-0.738,5.303-0.277c1.221,0.314,2.414,0.337,3.623-0.086
		c1.064-0.373,2.169-0.589,1.151-2.142c-0.785-1.197,0.249-1.633,1.115-1.888c2.899-0.852,5.783-1.847,8.886-1.571
		c2.377,1.3,3.196,3.77,4.44,5.92c-0.859,0.722-1.934,0.774-2.96,1.041c-1.551,0.402-3.171,0.485-4.564,1.591
		c-2.014,1.599-4.463,2.69-6.324,4.428c-2.507,2.345-5.269,4.167-8.32,5.645c-0.234,0.114-0.473,0.569-0.438,0.829
		c0.431,3.219-1.93,4.148-4.151,5.333c-1.148,0.613-2.7,1.287-1.979,3.161c1.041,2.705-0.225,4.518-2.191,6.172
		c-2.013,1.694-2.165,3.213-0.538,4.995c1.542,1.691,2.981,0.69,4.289-0.375c1.241-1.012,2.446-1.415,4.172-1.393
		c2.043,0.025,4.505,0.862,6.175-1.622c0.575-0.855,2.144-1.143,3.32-1.455c0.641-0.17,1.604-0.015,1.854,0.788
		c0.213,0.684-0.567,0.949-1.076,1.121c-5.982,2.03-10.503,6.237-15.159,10.211c-9.042,7.717-16.093,16.946-20.81,27.902
		c-0.406,0.945-0.604,2.401-2.038,1.8c-1.284-0.539-1.937-1.732-1.243-3.271c0.57-1.264,1.183-2.53,1.548-3.858
		c0.339-1.233,0.208-2.503-1.189-3.155c-2.129-0.992-4.736-0.019-5.782,2.14c-0.793,1.638-1.451,3.475-3.833,3.083
		c-2.251-0.371-3.362,0.68-3.76,2.782c-0.183,0.963-0.421,1.916-0.662,2.866c-0.313,1.235-0.784,2.489-2.201,2.677
		c-2.161,0.289-2.501,1.766-2.699,3.497c-0.158,1.373-0.167,2.888-1.216,3.899c-1.202,1.16-1.415,2.563-1.905,4.042
		c-0.639,1.931-0.354,4.127-1.592,5.826c-1.108,1.521-0.717,2.468,0.788,3.386c1.152,0.704,2.418,1.012,3.651,1.432
		c5.121,1.745,10.232,3.479,15.138,5.817c2.208,1.054,3.185,2.79,3.783,4.839c0.663,2.273,1.139,4.615,1.477,6.959
		c0.204,1.408,0.478,2.893-0.577,4.244c-4.018,5.153-8.844,9.206-15.095,11.384c-1.605,0.563-3.27,0.531-4.934,0.493
		c0.587-1.894,1.504-3.614,1.673-5.729c0.158-1.97-0.056-2.762-2.077-2.695c-0.354,0.012-0.717-0.296-1.076-0.456
		c0.536-0.659,1.361-0.351,2.01-0.603c2.115-0.821,4.615-1.127,5.389-3.838c4.191-6.723,3.171-12.162-2.959-15.785
		c-0.062-0.654-0.468-1.063-1.047-1.223c-3.217-0.892-6.428-1.926-9.805-0.751c0.245-1.784-0.718-2.831-2.253-3.322
		c-2.259-0.725-2.999-2.2-2.704-4.462c0.146-1.126,0-2.288,0.049-3.431c0.033-0.776,0.229-1.432,1.273-1.411
		c2.262,0.048,2.243-1.369,1.784-2.969c-0.539-1.879-1.785-3.528-1.955-5.517c-0.147-1.73-0.316-3.587,2.331-3.595
		c1-0.002,1.251-0.74,1.527-1.6C35.635,107.113,35.832,104.369,35.703,101.577z"/>
	<path fill-rule="evenodd" clip-rule="evenodd" fill="#F6F5F2" d="M48.529,153.869c-0.774,2.711-3.274,3.017-5.389,3.838
		c-0.649,0.252-1.474-0.057-2.01,0.603c-3.963-0.063-7.912,0.086-11.847-0.885c-2.022-0.498-3.753-1.541-5.689-2.152
		c-1.108-0.351-1.65-1.593-1.558-2.577c0.587-6.318,5.073-14.708,12.681-16.585c3.377-1.175,6.588-0.141,9.805,0.751
		c0.579,0.16,0.986,0.568,1.047,1.223c-2.36-0.659-4.772-0.829-7.207-1.08c-5.594-0.578-9.929,5.363-10.889,9.25
		c-0.32,1.297,0.11,2.193,1.525,2.153c3.644-0.103,6.521,1.818,9.557,3.39c1.043,0.541,1.671,1.254,1.944,2.352
		c0.462,1.86,1.764,2.005,3.41,1.863C45.756,155.852,46.812,154.183,48.529,153.869z"/>
	<path fill-rule="evenodd" clip-rule="evenodd" fill="#F3F2EC" d="M193.062,19.762c0.021,1.706,1.531,2.327,2.565,3.056
		c6.458,4.554,12.451,9.647,17.747,15.492c7.555,8.338,14.224,17.35,19.646,27.239c6.361,11.603,10.759,23.906,13.054,36.946
		c0.425,2.41,0.819,4.83,1.086,7.261c0.179,1.625-0.539,2.723-2.363,2.665c-2.48-0.079-4.446-1.484-6.545-2.567
		c-9.941-5.126-19.606-10.888-30.841-12.977c-4.858-0.904-7.988,1.918-7.542,6.795c0.263,2.874-0.01,5.78-0.72,8.61
		c-0.414,1.647,0.934,3.093,0.601,4.81c-1.196-0.267-1.406-1.285-1.568-2.054c-1.004-4.74-3.709-8.69-5.823-12.916
		c-0.267-0.534-0.589-0.993-1.256-1.039c-1.833-2.813-3.337-5.847-5.631-8.35c-2.566-2.802-5.126-5.613-7.688-8.42
		c1.742,0.226,3.241,1.082,4.672,1.991c3.03,1.927,6.448,2.833,9.819,3.826c1.99,0.585,3.419-0.034,3.882-2.397
		c0.418-2.138-0.883-5.96-2.85-7.375c-1.593-1.146-3.352-2.106-4.78-3.426c-4.548-4.204-8.969-8.545-13.461-12.807
		c-0.657-0.624-1.42-0.862-2.454-0.751c-2.136,0.229-4.178-0.478-5.343-2.304c-1.745-2.736-4.251-3.754-7.248-4.481
		c-3.21-0.779-6.761-1.163-8.795-4.464c-0.558-0.905-1.519-1.725-2.595-1.729c-3.249-0.014-6.218-2.189-9.599-1.158
		c-0.76,0.231-1.297-0.467-1.901-0.914c-1.77-1.31-1.786-3.607-3.066-5.183c-0.396-0.485-0.78-1.116-0.3-1.8
		c0.522-0.743,1.335-1.19,2.135-0.867c1.907,0.772,3.731-0.023,5.563-0.162c3.869-0.293,3.86-0.408,3.76-4.348
		c3.142-2.242,6.258-1.055,9.36,0.095c1.521,0.564,2.534,0.557,2.527-1.523c-0.003-1.488,1.229-2.038,2.436-2.416
		c1.112-0.348,1.861,0.134,2.392,1.162c0.457,0.885,1.354,1.3,2.284,1.161c1.818-0.271,3.495-1.276,5.425-1.07
		c0.167,0.019,0.511-0.253,0.531-0.42c0.472-3.855,2.653-1.869,4.414-1.307c0.302,0.096,0.599,0.314,1.034-0.111
		c-0.499-1.32-1.586-2.094-2.811-2.742c-0.87-0.461-1.784-0.863-2.581-1.428c-0.525-0.372-0.975-1.052-0.635-1.716
		c0.375-0.733,1.009-0.035,1.526-0.047c3.85-0.091,7.312,1.186,10.637,2.968c0.352,0.188,0.77,0.449,1.133,0.129
		c0.431-0.379,0.352-0.926,0.108-1.363c-2.411-4.326-4.35-8.701-9.57-11.008c-6.279-2.775-12.493-5.793-18.786-8.555
		C150.032,5.75,145,4.722,139.877,4.36c-4.966-0.35-9.82-1.868-14.868-1.493c-0.568,0.042-0.874-0.371-1.001-0.9
		c12.726-0.466,25.207,1.16,37.508,4.35c1.635,0.487,3.269,0.973,4.903,1.459c0.326,0.039,0.653,0.079,0.979,0.119
		c8.511,2.879,16.497,6.952,24.573,10.822c0.201,0.179,0.401,0.357,0.6,0.537C192.734,19.423,192.898,19.593,193.062,19.762z"/>
	<path fill-rule="evenodd" clip-rule="evenodd" fill="#F9F4ED" d="M145.222,35.965c0.101,3.94,0.109,4.054-3.76,4.348
		c-1.831,0.139-3.655,0.934-5.563,0.162c-0.8-0.323-1.612,0.124-2.135,0.867c-0.48,0.684-0.096,1.315,0.3,1.8
		c1.28,1.575,1.297,3.873,3.066,5.183c0.604,0.447,1.142,1.146,1.901,0.914c3.381-1.031,6.35,1.144,9.599,1.158
		c1.076,0.004,2.037,0.824,2.595,1.729c2.034,3.301,5.585,3.685,8.795,4.464c2.997,0.728,5.503,1.745,7.248,4.481
		c1.165,1.827,3.207,2.533,5.343,2.304c1.034-0.11,1.797,0.128,2.454,0.751c4.492,4.261,8.913,8.603,13.461,12.807
		c1.429,1.32,3.188,2.28,4.78,3.426c1.967,1.415,3.268,5.237,2.85,7.375c-0.463,2.363-1.892,2.983-3.882,2.397
		c-3.371-0.993-6.789-1.899-9.819-3.826c-1.431-0.91-2.93-1.766-4.672-1.991l-0.005-0.003c-0.098-1.238-0.915-1.516-1.969-1.477
		c-0.658-0.33-1.153-0.824-1.485-1.481c-0.086-0.937-0.757-0.996-1.476-0.985c-0.33-0.329-0.661-0.659-0.992-0.988
		c-0.085-0.936-0.756-0.996-1.473-0.985l-0.005-0.003c-0.099-1.24-0.916-1.516-1.971-1.476c-1.874-0.644-3.338-1.917-4.86-3.116
		c-2.363-1.864-4.906-3.387-7.969-3.797c-0.075-0.418-0.238-0.751-0.669-0.94c-3.602-1.579-7.33-2.984-11.207-3.346
		c-2.397-0.224-4.915-1.562-7.377-0.121c-9.286-1.171-18.381-0.373-27.263,2.638c-8.251,2.429-15.483,6.713-21.913,12.333
		c-5.972,5.22-11.066,11.185-14.5,18.428c-1.106,1.194-1.393,2.837-2.275,4.155c-0.068,0.095-0.124,0.197-0.167,0.306l-0.037,0.087
		c-1.646,0.706-1.941,2.4-2.487,3.762c-3.866,9.651-5.797,19.768-4.7,30.067c1.176,11.031,4.216,21.595,10.598,31.038
		c5.124,7.582,11.514,13.797,18.649,19.355c1.371,1.067,2.641,2.192,3.659,3.599c1.486,2.637,2.697,5.391,3.499,8.314
		c0.207,0.755,0.876,1.659,0,2.252c-0.853,0.577-1.858,0.382-2.76-0.232c-2.094-1.429-4.224-2.804-6.327-4.22
		c-2.316-1.562-4.609-3.096-7.534-3.374c-1.556-0.148-2.648-1.177-3.349-2.612c-0.815-1.671-2.461-2.584-3.65-3.878
		c-2.658-2.899-6.059-4.369-9.359-6.23c-2.659-1.499-3.937-4.675-5.063-7.572c-0.445-1.143-1.018-1.96-2.127-2.535
		c-2.601-1.352-5.348-2.156-8.258-2.077c-3.663,0.1-4.562,1.827-2.661,4.828c0.746,1.178,1.584,2.298,2.334,3.473
		c0.522,0.818,1.272,1.723,0.539,2.69c-0.721,0.952-1.842,0.943-2.938,0.636c-0.394-0.111-0.791-0.211-1.187-0.314
		c0.187-2.794-1.951-4.597-2.997-6.855c-0.786-1.696-1.172-2.813,1.154-3.364c1.809-0.429,2.271-1.931,2.336-3.594
		c6.251-2.178,11.077-6.23,15.095-11.384c1.054-1.352,0.78-2.836,0.577-4.244c-0.338-2.344-0.814-4.686-1.477-6.959
		c-0.598-2.049-1.575-3.785-3.783-4.839c-4.905-2.339-10.017-4.072-15.138-5.817c-1.233-0.42-2.499-0.728-3.651-1.432
		c-1.505-0.918-1.896-1.865-0.788-3.386c1.238-1.699,0.954-3.895,1.592-5.826c0.49-1.479,0.703-2.882,1.905-4.042
		c1.049-1.012,1.059-2.527,1.216-3.899c0.198-1.731,0.538-3.208,2.699-3.497c1.417-0.188,1.888-1.442,2.201-2.677
		c0.241-0.951,0.479-1.903,0.662-2.866c0.398-2.102,1.509-3.152,3.76-2.782c2.381,0.392,3.039-1.445,3.833-3.083
		c1.046-2.158,3.653-3.132,5.782-2.14c1.398,0.652,1.529,1.922,1.189,3.155c-0.366,1.328-0.979,2.594-1.548,3.858
		c-0.694,1.539-0.042,2.732,1.243,3.271c1.434,0.602,1.631-0.855,2.038-1.8c4.717-10.956,11.768-20.185,20.81-27.902
		c4.656-3.974,9.177-8.181,15.159-10.211c0.509-0.172,1.289-0.437,1.076-1.121c-0.25-0.803-1.213-0.958-1.854-0.788
		c-1.176,0.313-2.745,0.6-3.32,1.455c-1.669,2.484-4.131,1.647-6.175,1.622c-1.727-0.022-2.931,0.381-4.172,1.393
		c-1.308,1.065-2.748,2.066-4.289,0.375c-1.626-1.782-1.475-3.301,0.538-4.995c1.966-1.654,3.232-3.467,2.191-6.172
		c-0.722-1.874,0.831-2.548,1.979-3.161c2.221-1.185,4.582-2.114,4.151-5.333c-0.034-0.26,0.205-0.715,0.438-0.829
		c3.051-1.478,5.813-3.3,8.32-5.645c1.86-1.738,4.31-2.83,6.324-4.428c1.393-1.106,3.013-1.189,4.564-1.591
		c1.027-0.266,2.102-0.319,2.96-1.041c2.531-1.241,5.304-1.5,8.031-1.863c1.337-0.178,2.557-0.33,3.472-1.457
		c0.536-0.66,1.267-0.657,2.007-0.307c1.816,0.855,3.848,0.599,5.742,1.095c0.825,0.216,2.083,0.406,2.517-0.442
		c1.474-2.883,3.792-1.591,5.736-1.158C142.602,34.128,144.057,34.882,145.222,35.965z"/>
	<path fill-rule="evenodd" clip-rule="evenodd" fill="#C9C2B1" d="M192.571,19.255c-0.198-0.179-0.398-0.357-0.6-0.537
		C192.171,18.897,192.371,19.076,192.571,19.255z"/>
	<path fill-rule="evenodd" clip-rule="evenodd" fill="#C5BEAB" d="M253.824,110.99c0.748,6.431,0.958,12.878,0.965,19.356
		c0.016,15.289-3.137,29.938-8.672,44.099c-5.452,13.945-13.237,26.466-23.178,37.705c-9.724,10.996-21.038,19.902-33.852,26.974
		c-0.012-1.35,0.898-1.948,1.923-2.586c3.588-2.234,7.429-4.107,10.457-7.16c1.892-0.618,3.294-1.869,4.449-3.439
		c1.424-0.305,2.157-1.436,2.963-2.479c4.423-3.294,8.101-7.36,11.833-11.369c0.75-0.453,1.406-0.977,1.491-1.939
		c2.011-1.182,2.973-3.291,4.412-4.977c1.156-1.638,2.313-3.274,3.47-4.912c0.82-1.002,1.735-1.943,2.445-3.02
		c7.309-11.081,12.755-23.015,16.327-35.809c2.136-7.652,3.503-15.42,3.863-23.36c0.018-0.651,0.038-1.306,0.057-1.959
		c0.532-0.381,0.481-0.939,0.454-1.49c-0.15-5.589,0.563-11.199-0.429-16.766c0.061-2.689-0.135-5.348-0.919-7.938
		c-0.494-7.148-2.483-13.965-4.49-20.792c-0.549-1.866-2.017-3.66-0.947-5.815c2.318,4.719,3.515,9.807,4.822,14.852
		c0.593,2.287,1.055,4.608,1.575,6.914c0.309,1.624,0.618,3.248,0.927,4.871C253.789,110.296,253.807,110.643,253.824,110.99z"/>
	<path fill-rule="evenodd" clip-rule="evenodd" fill="#F8B21B" d="M65.284,132.665c0.108-3.954-0.264-7.931,0.558-11.851
		c0.418,0.099,0.812,0.267,0.876,0.739c0.337,2.465,1.544,4.597,2.461,6.858c2.315,5.712,5.996,10.052,11.593,12.717
		c7.885,3.754,16.051,5.611,24.904,4.95c7.532-0.563,14.478-2.461,20.921-6.333c8.088-4.861,14.298-11.574,18.305-20.027
		c3.14-6.623,4.5-13.736,4.351-21.226c-0.233-11.604-4.184-21.554-11.856-30.125c-0.63-0.704-1.171-1.371-1.032-2.375
		c1.554-0.035,3.071-0.033,4.614,0.434c2.702,0.817,5.471,1.41,8.212,2.097c0.134,0.066,0.27,0.131,0.404,0.196
		c0.844,0.267,1.688,0.534,2.531,0.802c2.05,1.014,4.179,1.899,6.131,3.076c2.344,1.412,5.112,2.26,6.729,4.718
		c-0.191,2.216,0.99,4.109,1.443,6.175c1.588,7.227,2.187,14.466,1.578,21.91c-0.731,8.917-3.063,17.313-7.276,25.074
		c-3.917,7.215-9.033,13.595-15.287,19.069c-5.069,4.437-10.792,7.811-16.825,10.503c-8.543,3.812-17.655,5.129-27.06,5.301
		c-6.45,0.118-11.64-2.102-16.542-5.798c-0.968-0.73-1.819-1.733-3.253-2.03c0.147,1.128,1.027,1.781,0.803,2.757
		c-0.326-0.245-0.697-0.445-0.969-0.74c-4.222-4.562-8.079-9.395-10.917-14.967c-0.765-1.502-1.496-3.014-3.63-1.981
		C65.884,139.381,66.059,135.938,65.284,132.665z"/>
	<path fill-rule="evenodd" clip-rule="evenodd" fill="#F9C21E" d="M136.364,65.993c-0.139,1.003,0.402,1.67,1.032,2.375
		c7.673,8.572,11.623,18.521,11.856,30.125c0.149,7.49-1.211,14.603-4.351,21.226c-4.007,8.454-10.217,15.166-18.305,20.027
		c-6.443,3.872-13.389,5.771-20.921,6.333c-8.853,0.661-17.02-1.196-24.904-4.95c-5.598-2.665-9.278-7.005-11.593-12.717
		c-0.917-2.262-2.124-4.393-2.461-6.858c-0.064-0.472-0.458-0.64-0.876-0.739c0.391-6.021,2.394-11.639,4.33-17.273l0.037-0.087
		c0.17-0.048,0.225-0.15,0.167-0.306c0.882-1.317,1.169-2.96,2.275-4.155c0.509,0.89,0.776,1.905,0.505,2.847
		c-1.279,4.433-0.084,8.494,2.066,12.249c1.537,2.685,2.749,5.777,5.884,7.218c0.011,0.152,0.013,0.303,0.005,0.455
		c0.093,1.653,0.614,3.209,1.147,4.751c0.498,1.442,1.219,2.132,2.596,0.685c1.376-1.446,3.199-1.919,5.145-1.934
		c2.461-0.02,4.921-0.009,7.382-0.012c3.119-0.067,6.188,0.772,9.323,0.492c1.003-0.089,2.088,0.088,1.942-1.461
		c3.215-0.791,6.149-2.192,8.833-4.114c0.541-0.386,1.022-0.856,1.73-0.811c2.466,0.159,4.849-0.802,7.324-0.519
		c1.497,0.171,2.477-0.121,2.503-2.037c0.02-1.246,0.592-2.475,1.2-3.675c2.167-4.274,3.393-8.912,3.505-13.657
		c0.137-5.852-1.841-11.265-4.875-16.239c-3.322-5.446-7.935-9.429-13.775-12.091c-2.021-0.921-4.618-0.722-6.028-2.909
		c8.881-3.011,17.977-3.809,27.263-2.638C136.34,65.728,136.352,65.86,136.364,65.993z"/>
	<path fill-rule="evenodd" clip-rule="evenodd" fill="#DAD6CA" d="M76.66,168.178c-0.335-0.496-0.67-0.989-1.006-1.486
		c0.013-1.524-0.86-2.548-1.957-3.443c-1.103-1.92-2.572-3.656-2.978-5.927c0.174-1.26-0.466-2.283-0.906-3.389
		c-0.376-0.946-1.325-1.862-0.509-3.031c0.325,0.653,0.679,1.293,0.968,1.962c3.086,7.135,7.26,13.576,12.545,19.267
		c1.769,1.904,3.809,3.558,5.725,5.324c-0.097,1.071,0.716,1.608,1.346,2.227c3.124,3.063,6.778,5.379,10.565,7.521
		c8.658,4.897,17.945,7.427,27.894,7.624c9.125,0.183,17.843-1.367,26.321-4.94c7.001-2.95,13.219-6.972,18.626-12.145
		c6.126-5.862,11.229-12.551,14.647-20.442c3.101-7.16,4.757-14.611,5.122-22.368c0.241-5.089,0.075-10.177-1.062-15.155
		c-0.378-1.656,0.04-3.689-1.72-4.888c-1.523-5.917-3.499-11.655-6.557-16.982c-0.991-1.728-2.259-3.305-2.911-5.221
		c0.739,0.06,1.081,0.589,1.498,1.127c5.416,6.959,8.772,14.795,10.926,23.352c1.955,7.77,2.169,15.512,1.25,23.333
		c-0.928,7.884-3.49,15.299-7.339,22.255c-0.63,0.289-0.962,0.776-0.977,1.473l-0.009,0.013c-0.975,0.528-1.303,1.444-1.471,2.455
		l-0.011,0.011c-0.634,0.283-0.96,0.774-0.977,1.469l-0.01,0.011c-0.786,0.432-1.413,0.983-1.47,1.963l-0.01,0.012
		c-0.92,0.605-1.827,1.223-1.963,2.455l-0.009,0.013c-1.348,1.139-2.923,2.079-3.443,3.94c-0.486,0.833-1.146,1.492-1.978,1.979
		c-1.863,0.521-2.804,2.095-3.941,3.444l-0.012,0.009c-1.624,0.791-3.356,1.458-3.944,3.438c-0.656,0.332-1.313,0.667-1.971,1.002
		c-1.373,0.504-3.041,0.593-3.456,2.45c-0.164,0.004-0.33,0.009-0.494,0.013c-2.679,0.422-4.898,1.993-7.355,2.973
		c-0.743,0.296-1.863,0.266-2.017,1.454c-0.329,0.002-0.657,0.004-0.985,0.007c-1.63-0.349-3.016-0.047-3.948,1.473
		c-0.328,0.002-0.656,0.005-0.985,0.007c-2.239-0.313-4.318,0.396-6.414,0.996c-0.491,0.002-0.981,0.003-1.473,0.005
		c-0.693,0.026-1.442-0.175-1.979,0.485c-3.776,0.284-7.58-0.109-11.344,0.478c-0.224-0.986-0.694-1.221-1.482-0.484
		c-0.657-0.002-1.314-0.005-1.971-0.009c-0.89-1.653-2.621-1.013-3.956-1.453c-1.148-0.009-2.295-0.019-3.443-0.028
		c-0.054-0.607-0.381-0.934-0.997-0.958c-0.654-0.01-1.309-0.019-1.964-0.026c-2.78-2.126-5.991-3.226-9.369-3.926l-0.017-0.014
		c-0.08-0.941-0.754-0.987-1.468-0.974c-0.328-0.001-0.656-0.002-0.983-0.003l-0.014-0.012c-0.282-0.636-0.77-0.962-1.467-0.97
		l-0.017-0.015c-0.278-0.64-0.766-0.963-1.463-0.975l-0.016-0.014c-1.024-1.365-2.636-1.945-3.935-2.945
		c-0.169-0.167-0.337-0.335-0.506-0.504c-0.281-0.642-0.769-0.97-1.471-0.971c-0.33-0.335-0.659-0.671-0.989-1.008
		c-0.515-0.992-1.279-1.571-2.45-1.476c-0.66-0.333-1.157-0.829-1.492-1.487c0.009-1.643-0.806-2.465-2.451-2.456l-0.016-0.017
		c-0.287-1.831-0.991-3.349-2.951-3.922l-0.018-0.018c-0.276-1.116-0.731-2.093-1.953-2.459c-0.011-0.162-0.022-0.323-0.032-0.485
		C77.598,168.549,77.273,168.224,76.66,168.178z"/>
	<path fill-rule="evenodd" clip-rule="evenodd" fill="#EAE8E2" d="M164.985,77.314c-1.616-2.458-4.385-3.306-6.729-4.718
		c-1.952-1.177-4.081-2.062-6.131-3.076c1.28-0.771,2.275,0.513,3.453,0.481c3.063,0.41,5.605,1.933,7.969,3.797
		c1.522,1.2,2.986,2.472,4.86,3.116c0.437,0.785,0.989,1.415,1.971,1.476l0.005,0.003c0.285,0.635,0.778,0.961,1.473,0.985
		c0.331,0.33,0.662,0.659,0.992,0.988c0.288,0.633,0.78,0.961,1.476,0.985c0.332,0.657,0.827,1.152,1.485,1.481
		c0.435,0.788,0.988,1.417,1.969,1.477l0.005,0.003c2.562,2.807,5.121,5.618,7.688,8.42c2.294,2.503,3.798,5.537,5.631,8.35
		c1.508,4.762,3.948,9.167,5.137,14.067c1.34,5.516,2.232,11.158,2.13,16.734c-0.231,12.449-3.14,24.312-9.855,35.029
		c-7.038,11.23-16.282,20.173-28.221,25.92c-7.144,3.438-14.73,5.729-22.789,6.535c-9.803,0.98-19.271,0.097-28.555-3.082
		c-4.847-1.659-9.218-4.198-13.229-7.362c-0.639-0.505-1.272-1.067-1.31-1.994c0.49-0.004,0.98-0.007,1.47-0.013l0.016,0.014
		c0.085,0.929,0.75,0.988,1.463,0.975c0,0,0.017,0.015,0.017,0.014c0.087,0.931,0.754,0.985,1.467,0.971l0.014,0.012
		c0.085,0.934,0.755,0.989,1.47,0.978c0.327-0.001,0.654-0.001,0.981-0.001l0.017,0.014c0.325,0.329,0.651,0.66,0.977,0.989
		c0.101,0.926,0.768,0.985,1.483,0.969c0.164,0.005,0.327,0.009,0.49,0.016c0.143,1.02,0.995,1.174,1.755,1.485
		c11.728,4.803,23.841,5.855,36.321,3.975c14.5-2.185,26.16-9.642,36.359-19.626c3.366-3.296,6.116-7.238,8.558-11.353
		c7.63-12.854,10.842-26.556,9.144-41.537c-0.912-8.046-3.561-15.382-6.954-22.568c-2.623-5.554-6.663-10.125-10.724-14.598
		c-1.559-1.717-3.182-3.781-5.749-4.359C170.336,81.268,168.093,78.711,164.985,77.314z"/>
	<path fill-rule="evenodd" clip-rule="evenodd" fill="#E1DDD4" d="M69.304,150.901c-0.816,1.169,0.133,2.085,0.509,3.031
		c0.44,1.105,1.081,2.129,0.906,3.389c-1.742-0.792-1.796-2.708-2.311-4.087c-2.216-5.933-3.297-12.145-3.587-18.479
		c-0.033-0.722-0.153-1.497,0.462-2.09c0.775,3.273,0.601,6.716,1.766,9.921C67.442,145.456,68.623,148.111,69.304,150.901z"/>
	<path fill-rule="evenodd" clip-rule="evenodd" fill="#E6E3DB" d="M95.879,186.917c-0.49,0.006-0.98,0.009-1.47,0.013
		c-1.515-0.408-2.467-1.284-2.464-2.958C93.243,184.972,94.855,185.552,95.879,186.917z"/>
	<path fill-rule="evenodd" clip-rule="evenodd" fill="#E3E0D7" d="M79.618,172.132c1.96,0.573,2.664,2.091,2.951,3.922
		C81.061,175.142,80.166,173.767,79.618,172.132z"/>
	<path fill-rule="evenodd" clip-rule="evenodd" fill="#E3E0D7" d="M73.697,163.248c1.097,0.896,1.969,1.919,1.957,3.443
		C74.334,165.923,73.698,164.766,73.697,163.248z"/>
	<path fill-rule="evenodd" clip-rule="evenodd" fill="#E3E0D7" d="M82.585,176.07c1.645-0.009,2.459,0.813,2.451,2.456
		C84.021,177.904,83.198,177.092,82.585,176.07z"/>
	<path fill-rule="evenodd" clip-rule="evenodd" fill="#E3E0D7" d="M77.647,169.655c1.222,0.366,1.676,1.343,1.953,2.459
		C78.138,171.939,77.889,170.801,77.647,169.655z"/>
	<path fill-rule="evenodd" clip-rule="evenodd" fill="#E3E0D7" d="M86.528,180.014c1.17-0.096,1.935,0.483,2.45,1.476
		C87.801,181.595,87.034,181.02,86.528,180.014z"/>
	<path fill-rule="evenodd" clip-rule="evenodd" fill="#E6E3DB" d="M89.967,182.497c0.702,0.001,1.19,0.329,1.471,0.971
		C90.724,183.482,90.063,183.419,89.967,182.497z"/>
	<path fill-rule="evenodd" clip-rule="evenodd" fill="#E3E0D7" d="M76.66,168.178c0.614,0.046,0.938,0.371,0.956,0.992
		C77.011,169.113,76.687,168.789,76.66,168.178z"/>
	<path fill-rule="evenodd" clip-rule="evenodd" fill="#E1E0DB" d="M252.804,117.858c0.991,5.567,0.278,11.177,0.43,16.766
		c-0.983,0.241-1.207,0.717-0.455,1.49c-0.019,0.653-0.039,1.308-0.056,1.959c-1.482,0.587-1.181,2.044-1.396,3.142
		c-1.925,9.812-4.511,19.386-8.392,28.66c-1.974,4.713-5.169,8.983-5.668,14.311c-0.1,1.077-1.011,1.804-1.972,2.387
		c-1.091,0.661-1.951,1.566-1.76,2.993c0.294,2.201-0.575,3.395-2.713,4.229c-2.69,1.053-2.854,2.613-1.068,5.063
		c0.261,0.357,0.229,0.931,0.331,1.403c-1.156,1.638-2.313,3.274-3.47,4.912c-1.125,0.167-2.718-0.565-3.209,0.874
		c-0.452,1.331-1.33,2.589-1.203,4.103c-0.085,0.963-0.741,1.486-1.491,1.939c-1.071-0.276-1.812,1.031-2.743,0.743
		c-2.35-0.73-2.715,0.724-3.277,2.438c-0.688,2.094-1.641,4.48-4.002,4.876c-2.508,0.418-2.244,1.647-1.811,3.312
		c-0.806,1.043-1.539,2.174-2.964,2.478c-0.679-0.813-1.346-0.472-1.868,0.123c-1.141,1.302-2.258,1.624-3.841,0.583
		c-0.962-0.632-1.861-0.152-2.188,1.106c-0.508,1.951-1.573,3.043-3.762,2.243c-0.655-0.238-1.26-0.077-1.865,0.296
		c-2.511,1.543-5.029,3.073-7.574,4.558c-1.081,0.631-1.603,1.399-1.655,2.739c-0.099,2.593-1.476,3.283-3.457,1.69
		c-1.107-0.89-1.867-0.785-3.053-0.277c-6.993,3.008-14.091,5.733-21.424,7.835c-6.526,1.871-13.186,3.156-19.778,4.739
		c-1.753,0.422-3.743,0.774-4.539,2.856c-13.262,0.463-26.224-1.343-38.923-5.145c-0.466-0.139-0.961-0.182-1.444-0.27
		c-6.901-2.8-14.013-5.11-20.556-8.749c-1.426-0.794-2.802-1.675-4.202-2.517c0.634-0.734,1.217-0.152,1.747,0.124
		c4.583,2.394,9.381,4.281,14.202,6.126c12.557,4.806,25.626,7.119,38.978,8.012c2.682,0.179,5.463,0.391,8.019-0.686
		c2.592-1.093,5.293-1.725,8.01-2.298c8.099-1.712,15.998-4.104,23.802-6.826c1.229-0.428,2.799-0.458,3.424-2
		c1.133-0.287,2.258-0.632,3.453-0.496c3.028-0.871,5.306-3.17,8.274-4.251c1.984-0.723,3.223-0.779,3.947,1.741
		c1.23-1.623,2.353-2.912,3.264-4.338c2.572-4.031,5.609-7.19,10.959-6.584c0.377,0.043,0.922-0.076,1.157-0.331
		c1.677-1.825,3.549-1.234,5.449-0.542c0.805-0.683,2.646-0.063,2.468-1.973c1.178-0.731,3.096-1.995,2.724-2.763
		c-0.889-1.828,0.168-1.97,1.21-2.109c1.386-0.185,1.556-0.607,0.734-1.664c-1.129-1.458-0.635-2.679,0.795-3.473
		c1.694-0.939,2.539,0.347,3.299,1.568c0.27,0.436-0.025,1.345,0.831,1.249c0.691-0.077,1.075-0.74,1.316-1.358
		c0.566-1.44,0.85-2.977,1.736-4.311c1.63-2.457,1.368-3.188-1.9-4.807c1.21,2.177,0.349,3.511-1.365,4.195
		c-1.315,0.525-2.273-0.519-2.711-1.571c-0.828-1.988,1.086-2.565,2.394-3.723c-2.078,0.245-2.383-0.622-1.862-2.207
		c0.22-0.667,0.231-1.491,0.06-2.175c-0.199-0.793-1.141-1.458-1.58-0.564c-0.98,1.997-1.938,1.568-3.186,0.431
		c-0.135-0.125-0.652-0.078-0.652-0.073c-0.302,2.746-2.907,1.715-4.309,2.637c-0.16,0.002-0.321,0.003-0.482,0.004
		c-0.332,0.162-0.662,0.325-0.994,0.487c-0.161,0.003-0.323,0.005-0.485,0.007c-1.666-0.019-2.49,0.805-2.47,2.472
		c-0.002,0.162-0.003,0.322-0.006,0.482c-1.934,1.01-0.805,2.775-0.943,4.175c-0.261,2.626-1.236,4.062-3.146,4.226
		c-1.36,0.114-3.106-1.021-3.918,1.136c-0.104,0.28-0.653,0.219-0.868-0.051c-0.995-1.253-1.261-0.066-1.228,0.488
		c0.181,2.973-1.96,4.09-4.045,5.208c-3.927,2.107-8,3.81-12.536,4.057c-1.125,0.062-2.542-0.076-2.639-1.254
		c-0.227-2.754-3.048-3.547-3.932-5.758c-0.195-0.492-1.219-1.308-1.669-0.136c-1.018,2.65-2.139,1.449-3.316,0.177
		c-0.683,1.111-0.854,2.071,0.016,3.188c1.303,1.678,0.498,2.643-1.291,3.221c-6.076,1.966-11.751,0.89-17.193-2.154
		c-0.878-0.491-1.447-1.4-0.423-1.814c1.724-0.695,2.946-2.054,4.547-2.844c6.55-3.232,13.835-4.569,20.347-7.922
		c5.494-2.828,11.793-4.286,15.865-9.495c0.293-0.374,0.75-0.634,1.167-0.889c3.73-2.265,7.011-5.123,10.176-8.074
		c4.447-4.144,8.081-8.988,11.578-13.963c3.967-5.639,7.827-11.249,10.097-17.883c1.008-2.943,1.336-6.106,2.841-8.872
		c1.443-2.65,2.071-5.484,2.259-8.475c0.069-1.118,0.198-2.89,0.85-3.196c2.48-1.169,2.111-2.902,1.616-4.889
		c-0.127-0.508-0.181-1.204,0.494-1.506c0.543-0.245,0.931,0.101,1.262,0.489c0.318,0.374,0.63,0.863,1.2,0.543
		c0.62-0.349,0.456-0.997,0.39-1.553c-0.115-0.96-0.933-1.949,0.129-2.932c1.892,2.461,3.913,4.659,4.285,7.923
		c0.202,1.79-0.579,3.414-0.353,5.11c0.521,3.885,1.21,7.746,1.725,11.631c0.378,2.852,0.448,5.741-0.036,8.582
		c-0.822,4.822-2.881,9.202-4.982,13.58c-1.458,3.033-3.032,6.05-3.709,9.442c1.017-1.175,1.774-2.49,2.568-3.783
		c0.518-0.844,0.76-2.349,2.225-1.587c1.212,0.63,1.187,1.873,0.645,3.026c-0.979,2.081-2.004,4.139-2.991,6.216
		c-0.379,0.794-0.911,1.506-0.618,2.538c0.345,1.209,0.454,2.879-1.082,2.978c-1.108,0.071-2.479-0.572-3.657-1.042
		c-0.701-0.281-0.005-1.184,0.011-1.803c0.024-1.02-0.185-1.762-1.307-2.025c-0.864-0.204-2.108-0.787-2.408,0.242
		c-0.889,3.056-2.201,1.599-3.563,0.393c-0.138,3.446,1.339,5.367,4.408,5.699c1.074,0.115,0.891,0.819,0.868,1.401
		c-0.078,1.961,1.061,3.116,2.683,3.68c1.068,0.37,1.627,0.747,1.835,1.923c0.341,1.927,1.913,1.1,2.983,0.979
		c1.149-0.129,1.557-0.889,0.683-1.88c-0.446-0.506,0.573-1.328-0.441-1.688c-0.198,0.144-0.422,0.254-0.575,0.428
		c-0.453,0.512-0.71,1.577-1.643,0.966c-0.944-0.618,0.124-1.256,0.22-1.898c0.503-3.389,2.516-5.984,4.375-8.682
		c0.861-1.25,1.643-2.464,3.413-2.429c0.397,0.009,1.211-0.181,0.653-0.836c-1.798-2.115,0.141-2.2,1.369-2.53
		c1.178-0.317,2.439-0.321,3.618-0.632c0.909-0.239,1.724-0.87,1.387-1.964c-0.322-1.043-1.034-0.705-1.758-0.271
		c-0.762,0.457-1.524,0.028-1.273-0.732c0.604-1.828,0.05-3.851,1.328-5.596c2.513-3.432,4.423-7.177,5.986-11.188
		c2.294-5.887,4.485-11.813,6.134-17.886c2.399-8.834,3.853-17.873,4.657-27.01C251.467,119.711,251.271,118.254,252.804,117.858z
		 M159.419,216.811c0.055,0.021,0.108,0.04,0.163,0.062c0.016-0.049,0.062-0.124,0.045-0.141c-0.036-0.037-0.102-0.047-0.156-0.065
		C159.453,216.714,159.436,216.762,159.419,216.811z M212.383,189.045c-0.055,0.017-0.124,0.019-0.16,0.054
		c-0.019,0.019,0.021,0.095,0.032,0.145c0.055-0.016,0.123-0.019,0.16-0.055C212.433,189.172,212.395,189.095,212.383,189.045z
		 M206.87,198.121c0.052-0.028,0.104-0.057,0.155-0.083c-0.043-0.039-0.083-0.104-0.13-0.108c-0.048-0.005-0.103,0.048-0.154,0.076
		C206.785,198.044,206.827,198.083,206.87,198.121z"/>
	<path fill-rule="evenodd" clip-rule="evenodd" fill="#E6E3DB" d="M252.804,117.858c-1.532,0.396-1.337,1.853-1.423,2.827
		c-0.805,9.137-2.258,18.176-4.657,27.01c-1.648,6.072-3.84,11.999-6.134,17.886c-1.563,4.011-3.474,7.756-5.986,11.188
		c-1.278,1.745-0.725,3.768-1.328,5.596c-0.251,0.761,0.512,1.189,1.273,0.732c0.724-0.435,1.436-0.772,1.758,0.271
		c0.337,1.094-0.478,1.725-1.387,1.964c-1.179,0.311-2.44,0.314-3.618,0.632c-1.229,0.33-3.167,0.415-1.369,2.53
		c0.558,0.655-0.256,0.845-0.653,0.836c-1.771-0.035-2.552,1.179-3.413,2.429c-1.859,2.697-3.872,5.293-4.375,8.682
		c-0.096,0.643-1.164,1.28-0.22,1.898c0.933,0.611,1.189-0.454,1.643-0.966c0.153-0.174,0.377-0.284,0.575-0.428
		c1.015,0.36-0.005,1.183,0.441,1.688c0.874,0.991,0.467,1.751-0.683,1.88c-1.07,0.121-2.643,0.948-2.983-0.979
		c-0.208-1.176-0.767-1.553-1.835-1.923c-1.622-0.563-2.761-1.719-2.683-3.68c0.022-0.582,0.206-1.286-0.868-1.401
		c-3.069-0.332-4.546-2.253-4.408-5.699c1.362,1.206,2.675,2.663,3.563-0.393c0.3-1.029,1.544-0.446,2.408-0.242
		c1.122,0.264,1.331,1.006,1.307,2.025c-0.016,0.619-0.712,1.521-0.011,1.803c1.179,0.47,2.549,1.113,3.657,1.042
		c1.536-0.099,1.427-1.769,1.082-2.978c-0.293-1.032,0.239-1.744,0.618-2.538c0.987-2.077,2.013-4.135,2.991-6.216
		c0.542-1.153,0.567-2.396-0.645-3.026c-1.465-0.762-1.707,0.743-2.225,1.587c-0.794,1.293-1.552,2.608-2.568,3.783
		c0.677-3.393,2.251-6.409,3.709-9.442c2.102-4.378,4.16-8.758,4.982-13.58c0.484-2.841,0.414-5.73,0.036-8.582
		c-0.515-3.885-1.204-7.746-1.725-11.631c-0.227-1.696,0.555-3.32,0.353-5.11c-0.372-3.264-2.394-5.462-4.285-7.923
		c-1.062,0.982-0.244,1.972-0.129,2.932c0.066,0.556,0.23,1.204-0.39,1.553c-0.57,0.32-0.882-0.169-1.2-0.543
		c-0.331-0.389-0.719-0.734-1.262-0.489c-0.675,0.302-0.621,0.998-0.494,1.506c0.495,1.986,0.864,3.72-1.616,4.889
		c-0.651,0.307-0.78,2.078-0.85,3.196c-0.188,2.99-0.815,5.824-2.259,8.475c-1.505,2.766-1.833,5.929-2.841,8.872
		c-2.27,6.634-6.13,12.244-10.097,17.883c-3.497,4.975-7.131,9.819-11.578,13.963c-3.165,2.951-6.445,5.81-10.176,8.074
		c-0.417,0.255-0.874,0.515-1.167,0.889c-4.072,5.209-10.371,6.667-15.865,9.495c-6.512,3.353-13.797,4.689-20.347,7.922
		c-1.601,0.79-2.823,2.148-4.547,2.844c-1.024,0.414-0.455,1.323,0.423,1.814c5.442,3.044,11.117,4.12,17.193,2.154
		c1.789-0.578,2.594-1.543,1.291-3.221c-0.87-1.116-0.698-2.076-0.016-3.188c1.178,1.272,2.299,2.474,3.316-0.177
		c0.45-1.172,1.474-0.356,1.669,0.136c0.884,2.211,3.705,3.004,3.932,5.758c0.097,1.178,1.514,1.315,2.639,1.254
		c4.536-0.247,8.609-1.949,12.536-4.057c2.085-1.118,4.226-2.235,4.045-5.208c-0.033-0.555,0.232-1.741,1.228-0.488
		c0.215,0.27,0.764,0.331,0.868,0.051c0.812-2.157,2.558-1.021,3.918-1.136c1.91-0.164,2.886-1.6,3.146-4.226
		c0.139-1.399-0.99-3.165,0.943-4.175c-0.388,1.478-0.887,2.955,0.001,4.433c0.163,0.332,0.326,0.663,0.488,0.996
		c-1.391,2.18,0.723,3.022,1.787,3.882c2.163,1.747,3.198,3.725,2.652,6.472c-0.633-0.354-1.245-0.753-1.904-1.049
		c-0.544-0.245-0.955-1.261-1.647-0.628c-0.863,0.789,0.263,1.309,0.584,1.829c0.72,1.166,1.64,2.21,2.476,3.304
		c-1.9-0.692-3.772-1.283-5.449,0.542c-0.235,0.255-0.78,0.374-1.157,0.331c-5.35-0.606-8.387,2.553-10.959,6.584
		c-0.911,1.426-2.033,2.715-3.264,4.338c-0.725-2.521-1.963-2.464-3.947-1.741c-2.969,1.081-5.246,3.38-8.274,4.251
		c0.404-1.785,2.246-2.221,3.264-3.458c2.812-3.42,1.45-7.945-2.779-8.87c-2.022-0.496-3.787-1.595-5.567-2.583
		c-2.114-1.171-3.202-0.516-3.806,1.601c-0.158,0.333-0.319,0.667-0.479,1c0.004,0.155,0.004,0.311,0.001,0.466
		c-0.797,1.812-0.806,3.623,0,5.434l0.006-0.009c-0.004,0.332-0.008,0.663-0.012,0.995c-2.136,1.21-4.26,2.438-6.886,1.982
		c-0.564-0.099-1.414,0.02-1.545-0.524c-0.622-2.584-2.637-1.761-4.308-1.977c-5.64-0.725-10.902-2.419-15.989-5.141
		c-4.239-2.269-6.038-5.971-7.874-9.873c-0.735-1.562-0.59-2.696,1.358-3.437c3.55-1.35,7.186-1.816,10.939-1.809
		c0.966,0.003,1.929-0.306,2.898-0.437c8.807-1.187,17.359-3.449,25.457-7.033c8.63-3.82,16.646-8.68,23.798-15.014
		c7.919-7.015,14.292-15.148,18.825-24.608c3.742-7.813,6.732-15.889,7.813-24.685c0.672-5.491,1.263-10.98,1.776-16.484
		c0.302-3.23-0.217-6.486,0.428-9.697c0.763-3.802,2.369-5.122,6.171-5.081c1.035,0.012,1.536,0.691,2.209,1.324
		c4.685,4.402,7.627,10.212,11.901,14.844c2.688,2.915,4.516,6.143,6.506,9.39c0.591,0.96,1.204,1.759,2.515,1.535
		c1.353-0.232,1.01-1.434,1.431-2.24c2.427-4.659,2.985-9.823,4.169-14.813c0.833-3.507,1.501-7.054,2.243-10.584
		C252.669,112.51,252.864,115.169,252.804,117.858z M196.92,216.99c-0.213-0.588-0.662-1.161-1.437-1.357
		c-1.167-0.299-2.156,0.057-2.733,1.127c-1.281,2.376-3.238,3.593-5.92,3.8c-0.619,0.047-1.225,0.451-1.809,0.744
		c-0.656,0.33-1.514,0.699-1.104,1.612c0.386,0.854,1.138,0.256,1.722,0.092c3.584-1.006,6.695-3.104,10.151-4.411
		C196.419,218.36,196.955,217.961,196.92,216.99z M229.586,172.09c-0.075-0.523-0.022-1.313-0.625-1.148
		c-1.091,0.297-1.251,1.381-1.323,2.369c-0.038,0.493,0.091,1.208,0.66,1.087C229.519,174.139,229.248,172.89,229.586,172.09z
		 M218.269,195.999c-0.468,0.003-0.748,0.275-0.822,0.697c-0.083,0.464,0.225,0.806,0.628,0.873
		c0.538,0.089,0.932-0.212,0.938-0.795C219.017,196.32,218.71,196.073,218.269,195.999z"/>
	<path fill-rule="evenodd" clip-rule="evenodd" fill="#E6E3DB" d="M163.968,240.201c-0.625,1.542-2.195,1.572-3.424,2
		c-7.804,2.722-15.703,5.114-23.802,6.826c-2.717,0.573-5.418,1.205-8.01,2.298c-2.556,1.076-5.337,0.864-8.019,0.686
		c-13.352-0.893-26.421-3.206-38.978-8.012c-4.821-1.845-9.619-3.732-14.202-6.126c-0.529-0.276-1.113-0.858-1.747-0.124
		c-6.632-3.526-12.771-7.757-18.354-12.789c0.886-0.146,1.52,0.275,2.222,0.784c13.492,9.753,28.23,16.973,44.37,21.081
		c8.147,2.074,16.512,2.992,24.887,3.994c7.288,0.872,13.231-2.418,19.79-3.688c4.146-0.804,8.24-2.097,12.193-3.604
		c2.396-0.916,4.973-1.604,7.083-3.191c0.453-0.34,0.811-0.348,1.324-0.31C160.853,240.142,162.411,240.152,163.968,240.201z"/>
	<path fill-rule="evenodd" clip-rule="evenodd" fill="#E1E0DB" d="M158.048,234.28c0.004-0.332,0.008-0.663,0.012-0.995
		c0.271-0.154,0.749-0.277,0.778-0.468c0.293-1.928,1.316-2.364,3.216-2.181c1.651,0.16,2.274-2.31,4.108-2.216
		c0.386,0.018,0.776,0.212,1.137,0.386c0.667,0.317,1.333,0.59,2.088,0.534c-0.001,4.254-3.029,7.48-7.292,7.88
		C159.82,237.434,159.091,235.679,158.048,234.28z"/>
	<path fill-rule="evenodd" clip-rule="evenodd" fill="#DAD6CA" d="M169.387,229.341c-0.755,0.056-1.421-0.217-2.088-0.534
		c-0.36-0.174-0.751-0.368-1.137-0.386c-1.834-0.094-2.457,2.376-4.108,2.216c-1.899-0.184-2.923,0.253-3.216,2.181
		c-0.029,0.19-0.508,0.313-0.778,0.468l-0.006,0.009c0-1.811,0-3.622,0-5.434c0.003-0.155,0.003-0.311-0.001-0.466
		c0.16-0.333,0.32-0.667,0.479-1c0.604-2.116,1.691-2.771,3.806-1.601c1.78,0.988,3.545,2.087,5.567,2.583
		C168.4,228.031,168.893,228.686,169.387,229.341z"/>
	<path fill-rule="evenodd" clip-rule="evenodd" fill="#DEDAD0" d="M130.911,254.429c0.796-2.082,2.786-2.435,4.539-2.856
		c6.593-1.583,13.252-2.868,19.778-4.739c7.333-2.102,14.431-4.827,21.424-7.835c1.186-0.508,1.945-0.612,3.053,0.277
		c1.981,1.593,3.358,0.902,3.457-1.69c0.053-1.34,0.574-2.108,1.655-2.739c2.545-1.484,5.063-3.015,7.574-4.558
		c0.605-0.373,1.21-0.534,1.865-0.296c2.188,0.8,3.254-0.292,3.762-2.243c0.327-1.259,1.227-1.738,2.188-1.106
		c1.583,1.041,2.7,0.719,3.841-0.583c0.522-0.595,1.189-0.937,1.868-0.123c-1.154,1.571-2.557,2.822-4.448,3.44
		c-0.657-1.899-1.829-0.725-2.414-0.173c-1.465,1.378-3.392,1.974-4.902,3.147c-2.016,1.565-5.203,1.863-5.771,5.133
		c-0.114,0.662-0.781,0.686-1.305,0.081c-0.42-0.482-0.937-0.882-1.41-1.32c-0.172-0.245-0.333-0.227-0.485,0.02
		c-0.161,0.161-0.322,0.321-0.483,0.482c-0.059,0.046-0.172,0.105-0.164,0.136c0.027,0.122,0.094,0.235,0.146,0.351
		c0.22,0.764,1.696,1.59,0.496,2.236c-1.373,0.741-2.655,1.981-4.48,1.732c-1.51-0.206-2.935,0.258-4.264,0.924
		c-5.783,2.896-11.711,5.435-17.887,7.368c-1.013,0.317-1.778,0.817-1.98,1.931C148.115,253.306,139.6,254.595,130.911,254.429z"/>
	<path fill-rule="evenodd" clip-rule="evenodd" fill="#DAD6CA" d="M185.666,236.245c0.474,0.438,0.99,0.838,1.41,1.32
		c0.523,0.604,1.19,0.581,1.305-0.081c0.567-3.27,3.755-3.567,5.771-5.133c1.511-1.174,3.438-1.77,4.902-3.147
		c0.585-0.552,1.757-1.727,2.414,0.173c-3.028,3.053-6.869,4.926-10.457,7.16c-1.024,0.638-1.935,1.236-1.923,2.586
		c-10.284,5.573-21.077,9.804-32.524,12.302c0.202-1.113,0.968-1.613,1.98-1.931c6.176-1.934,12.104-4.473,17.887-7.368
		c1.329-0.666,2.754-1.13,4.264-0.924c1.825,0.249,3.107-0.991,4.48-1.732c1.2-0.646-0.276-1.473-0.496-2.236
		c0.004-0.161,0.012-0.324,0.019-0.486c0.161-0.161,0.322-0.321,0.483-0.482C185.342,236.257,185.504,236.25,185.666,236.245z"/>
	<path fill-rule="evenodd" clip-rule="evenodd" fill="#F3F2EC" d="M48.529,153.869c-1.717,0.313-2.773,1.982-4.62,2.143
		c-1.646,0.142-2.947-0.003-3.41-1.863c-0.273-1.098-0.901-1.811-1.944-2.352c-3.037-1.571-5.913-3.492-9.557-3.39
		c-1.415,0.04-1.845-0.856-1.525-2.153c0.96-3.887,5.294-9.828,10.889-9.25c2.435,0.251,4.847,0.421,7.207,1.08
		C51.7,141.707,52.72,147.146,48.529,153.869z"/>
	<path fill-rule="evenodd" clip-rule="evenodd" fill="#FACB20" d="M109.063,68.232c1.41,2.187,4.007,1.987,6.028,2.909
		c5.84,2.663,10.453,6.645,13.775,12.091c3.034,4.974,5.012,10.387,4.875,16.239c-0.112,4.745-1.338,9.383-3.505,13.657
		c-0.608,1.2-1.181,2.429-1.2,3.675c-0.026,1.916-1.006,2.208-2.503,2.037c-2.476-0.283-4.858,0.678-7.324,0.519
		c-0.708-0.045-1.19,0.425-1.73,0.811c-2.684,1.922-5.618,3.323-8.832,4.114c-0.123-0.21-0.33-0.409-0.36-0.632
		c-0.953-7.054-0.978-14.042,1.292-20.912c1.089-3.301,0.461-4.226-2.969-5.179c-6.659-1.853-13.167-1.019-19.588,1.111
		c-1.895,0.63-3.129,1.944-3.777,3.911c-2.009,6.102-2.349,12.377-2.139,18.724c-3.135-1.44-4.347-4.533-5.884-7.218
		c-2.15-3.755-3.345-7.816-2.066-12.249c0.271-0.942,0.004-1.957-0.505-2.847c3.435-7.243,8.528-13.208,14.5-18.428
		C93.581,74.945,100.813,70.661,109.063,68.232z M121.291,102.126c-2.656-0.2-5.177,0.017-7.64,0.708
		c-2.264,0.636-1.875,2.561-1.953,4.234c-0.05,1.075,0.571,1.391,1.545,1.421c5.084,0.158,10.063-0.959,15.113-1.239
		c1.38-0.077,2.087-0.923,2.086-2.488c-0.005-1.799-1.243-1.953-2.426-2.132C125.758,102.291,123.498,101.823,121.291,102.126z
		 M92.311,84.177c4.446-2.493,8.641-5.448,13.965-5.787C100.217,77.017,94.735,79.29,92.311,84.177z"/>
	<path fill-rule="evenodd" clip-rule="evenodd" fill="#F3F2EC" d="M155.579,70.001c-1.178,0.032-2.173-1.251-3.453-0.481
		c-0.844-0.268-1.688-0.535-2.531-0.801c-0.116-0.104-0.251-0.169-0.404-0.196c-2.741-0.687-5.51-1.28-8.212-2.097
		c-1.543-0.466-3.061-0.468-4.614-0.434c-0.013-0.132-0.024-0.265-0.038-0.398c2.462-1.44,4.979-0.103,7.377,0.121
		c3.877,0.362,7.605,1.767,11.207,3.346C155.341,69.25,155.504,69.583,155.579,70.001z"/>
	<path fill-rule="evenodd" clip-rule="evenodd" fill="#F3F2EC" d="M177.778,84.31c-0.98-0.06-1.534-0.689-1.969-1.477
		C176.863,82.794,177.681,83.072,177.778,84.31z"/>
	<path fill-rule="evenodd" clip-rule="evenodd" fill="#F3F2EC" d="M170.379,78.39c-0.981-0.061-1.534-0.69-1.971-1.476
		C169.463,76.874,170.28,77.15,170.379,78.39z"/>
	<path fill-rule="evenodd" clip-rule="evenodd" fill="#F3F2EC" d="M171.856,79.379c-0.694-0.024-1.188-0.35-1.473-0.985
		C171.101,78.383,171.771,78.443,171.856,79.379z"/>
	<path fill-rule="evenodd" clip-rule="evenodd" fill="#F3F2EC" d="M174.324,81.352c-0.695-0.023-1.188-0.352-1.476-0.985
		C173.567,80.356,174.238,80.416,174.324,81.352z"/>
	<path fill-rule="evenodd" clip-rule="evenodd" fill="#EFECE6" d="M70.375,103.148c0.058,0.156,0.003,0.257-0.167,0.306
		C70.251,103.345,70.308,103.243,70.375,103.148z"/>
	<path fill-rule="evenodd" clip-rule="evenodd" fill="#DEDAD0" d="M230.086,200.262c-0.103-0.473-0.07-1.046-0.331-1.403
		c-1.786-2.45-1.622-4.011,1.068-5.063c2.138-0.835,3.007-2.028,2.713-4.229c-0.191-1.427,0.669-2.332,1.76-2.993
		c0.961-0.583,1.872-1.31,1.972-2.387c0.499-5.327,3.694-9.598,5.668-14.311c3.881-9.274,6.467-18.849,8.392-28.66
		c0.215-1.098-0.087-2.555,1.396-3.142c-0.361,7.94-1.729,15.708-3.864,23.36c-3.572,12.794-9.019,24.728-16.327,35.809
		C231.821,198.318,230.906,199.26,230.086,200.262z"/>
	<path fill-rule="evenodd" clip-rule="evenodd" fill="#DEDAD0" d="M208.88,223.459c-0.434-1.664-0.697-2.894,1.811-3.312
		c2.361-0.396,3.314-2.782,4.002-4.876c0.563-1.715,0.928-3.169,3.277-2.438c0.932,0.288,1.672-1.02,2.743-0.743
		C216.98,216.099,213.303,220.165,208.88,223.459z"/>
	<path fill-rule="evenodd" clip-rule="evenodd" fill="#DEDAD0" d="M222.204,210.15c-0.127-1.514,0.751-2.771,1.203-4.103
		c0.491-1.439,2.084-0.707,3.209-0.874C225.177,206.859,224.215,208.969,222.204,210.15z"/>
	<path fill-rule="evenodd" clip-rule="evenodd" fill="#DEDAD0" d="M252.778,136.114c-0.752-0.773-0.528-1.249,0.455-1.49
		C253.26,135.175,253.311,135.733,252.778,136.114z"/>
	<path fill-rule="evenodd" clip-rule="evenodd" fill="#F79D16" d="M69.304,150.901c-0.681-2.79-1.862-5.445-2.254-8.315
		c2.134-1.032,2.865,0.479,3.63,1.981c2.838,5.572,6.695,10.405,10.917,14.967c0.272,0.295,0.644,0.495,0.969,0.74
		c0.599,0.403,1.293,0.715,1.784,1.224c7.547,7.831,16.875,11.789,27.616,12.025c7.509,0.164,14.539-2.516,21.243-5.589
		c10.081-4.622,18.983-10.925,26.202-19.533c4.358-5.198,8.057-10.781,10.979-16.846c5.948-12.343,7.674-25.494,6.869-39.052
		c-0.076-1.288-0.632-2.577,0.294-3.774c1.013,1.38,1.778,2.963,3.263,3.955c0.652,1.916,1.92,3.493,2.911,5.221
		c3.058,5.327,5.033,11.065,6.556,16.982c0.71,5.245,1.874,10.458,1.076,15.806c-1.775-0.074-1.825,1.419-2.161,2.517
		c-2.178,7.082-4.672,14.054-8.863,20.215c-6.929,10.188-16.05,17.781-27.288,22.986c-9.219,4.271-18.883,5.452-28.747,4.438
		c-10.178-1.047-19.735-4.594-28.734-9.423c-6.253-3.356-12.793-6.368-17.548-11.967c-0.375-0.442-0.874-1.327-1.556-0.741
		c-0.679,0.584-0.087,1.323,0.299,1.972c4.563,7.665,10.589,13.882,18.138,18.663c13.819,8.754,28.758,12.026,44.873,8.998
		c16.494-3.101,29.74-11.521,39.794-24.996c0.701-0.939,1.026-2.586,2.768-2.466c-2.119,4.127-5.08,7.616-8.269,10.932
		c-11.944,12.418-26.563,18.84-43.743,19.574c-4.61,0.198-9.148-0.452-13.705-0.923c-5.417-1.19-10.603-3.087-15.728-5.165
		c-4.3-2.327-8.312-5.107-12.345-7.853c-1.916-1.767-3.956-3.42-5.725-5.324c-5.286-5.69-9.459-12.132-12.545-19.267
		C69.983,152.194,69.628,151.555,69.304,150.901z"/>
	<path fill-rule="evenodd" clip-rule="evenodd" fill="#F8A618" d="M177.552,88.73c-0.926,1.197-0.37,2.486-0.294,3.774
		c0.805,13.558-0.921,26.708-6.869,39.052c-2.922,6.064-6.62,11.647-10.979,16.846c-7.219,8.608-16.121,14.911-26.202,19.533
		c-6.704,3.073-13.733,5.753-21.243,5.589c-10.741-0.236-20.069-4.194-27.616-12.025c-0.49-0.509-1.185-0.82-1.784-1.224
		c0.225-0.976-0.655-1.629-0.803-2.757c1.434,0.297,2.286,1.3,3.253,2.03c4.902,3.696,10.092,5.916,16.542,5.798
		c9.405-0.172,18.517-1.489,27.06-5.301c6.033-2.692,11.756-6.066,16.825-10.503c6.254-5.475,11.37-11.854,15.287-19.069
		c4.213-7.761,6.545-16.157,7.276-25.074c0.608-7.443,0.01-14.683-1.578-21.91c-0.453-2.065-1.635-3.959-1.443-6.175
		c3.107,1.397,5.351,3.954,7.997,5.97C174.505,85.099,176.028,86.915,177.552,88.73z"/>
	<path fill-rule="evenodd" clip-rule="evenodd" fill="#EAE8E2" d="M149.19,68.523c0.153,0.027,0.288,0.093,0.404,0.196
		C149.46,68.654,149.324,68.589,149.19,68.523z"/>
	<path fill-rule="evenodd" clip-rule="evenodd" fill="#FBDC5A" d="M81.105,121.307c-0.209-6.346,0.13-12.622,2.139-18.724
		c0.648-1.967,1.882-3.281,3.777-3.911c6.421-2.13,12.929-2.964,19.588-1.111c3.43,0.953,4.059,1.878,2.969,5.179
		c-2.27,6.871-2.245,13.858-1.292,20.912c0.03,0.223,0.237,0.421,0.36,0.632c0.145,1.549-0.94,1.372-1.943,1.461
		c-3.136,0.28-6.205-0.56-9.323-0.492c-0.185-0.982-0.961-0.879-1.691-0.997c-4.867-0.79-9.791-1.253-14.579-2.494
		C81.118,121.61,81.116,121.458,81.105,121.307z"/>
	<path fill-rule="evenodd" clip-rule="evenodd" fill="#FACB20" d="M81.11,121.762c4.789,1.241,9.712,1.705,14.579,2.494
		c0.73,0.118,1.507,0.014,1.691,0.997c-2.461,0.003-4.921-0.008-7.382,0.012c-1.946,0.015-3.769,0.487-5.145,1.934
		c-1.377,1.447-2.098,0.757-2.596-0.685C81.724,124.971,81.203,123.415,81.11,121.762z"/>
	<path fill-rule="evenodd" clip-rule="evenodd" fill="#E6E3DB" d="M177.552,88.73c-1.523-1.815-3.047-3.631-4.569-5.446
		c2.567,0.578,4.19,2.642,5.749,4.359c4.061,4.473,8.101,9.044,10.724,14.598c3.394,7.187,6.042,14.522,6.954,22.568
		c1.698,14.981-1.514,28.683-9.144,41.537c-2.441,4.114-5.191,8.057-8.558,11.353c-10.199,9.984-21.859,17.441-36.359,19.626
		c-12.479,1.881-24.593,0.828-36.321-3.975c-0.76-0.312-1.612-0.466-1.755-1.485c2.14,0.65,4.279,1.301,6.418,1.952
		c0.655,0.008,1.31,0.017,1.964,0.025c0.058,0.604,0.383,0.933,0.997,0.959c1.148,0.01,2.295,0.02,3.443,0.028
		c0.899,1.626,2.538,1.237,3.956,1.453c0.657,0.004,1.314,0.007,1.971,0.009c0.376,0.522,0.933,0.493,1.482,0.484
		c3.764-0.587,7.568-0.193,11.344-0.478c0.866,0.69,1.592,0.788,1.979-0.485c0.491-0.002,0.981-0.003,1.473-0.006
		c2.334,0.931,4.372-0.048,6.414-0.995c0.329-0.002,0.657-0.005,0.985-0.007c1.358-0.377,2.771-0.608,3.948-1.473
		c0.328-0.003,0.656-0.005,0.985-0.007c3.425-0.837,6.647-2.105,9.372-4.427c0.164-0.004,0.33-0.009,0.494-0.013
		c1.323-0.574,2.819-0.906,3.456-2.45c0.657-0.335,1.314-0.67,1.971-1.002c1.627-0.787,3.358-1.456,3.944-3.438l0.012-0.009
		c2.118-0.227,3.214-1.626,3.941-3.444c0.832-0.486,1.491-1.146,1.978-1.979c1.818-0.727,3.218-1.821,3.443-3.94l0.009-0.013
		c1.405-0.216,1.997-1.087,1.963-2.455l0.01-0.012c1.233-0.098,1.511-0.911,1.47-1.963l0.01-0.011
		c0.931-0.086,0.99-0.753,0.977-1.469l0.011-0.011c1.351-0.304,1.409-1.381,1.471-2.455l0.009-0.013
		c0.935-0.087,0.989-0.757,0.977-1.473c3.849-6.956,6.411-14.371,7.339-22.255c0.919-7.82,0.705-15.563-1.25-23.333
		c-2.153-8.557-5.51-16.393-10.926-23.352c-0.417-0.538-0.759-1.067-1.498-1.127C179.33,91.693,178.564,90.11,177.552,88.73z"/>
	<path fill-rule="evenodd" clip-rule="evenodd" fill="#CCC6B6" d="M191.357,130.693c0.798-5.348-0.366-10.561-1.076-15.806
		c1.761,1.199,1.343,3.232,1.721,4.888c1.137,4.978,1.303,10.066,1.062,15.155c-0.365,7.757-2.021,15.208-5.122,22.368
		c-3.418,7.892-8.521,14.58-14.647,20.442c-5.407,5.173-11.625,9.194-18.626,12.145c-8.479,3.573-17.196,5.123-26.321,4.94
		c-9.948-0.197-19.235-2.727-27.894-7.624c-3.787-2.143-7.442-4.458-10.565-7.521c-0.629-0.618-1.442-1.155-1.346-2.227
		c4.033,2.745,8.045,5.525,12.345,7.853c-0.081,0.949,0.652,1.229,1.304,1.557c7.948,4.008,16.251,6.625,25.269,6.445
		c0.494,0.008,0.989,0.016,1.485,0.023c0.497,0.564,1.173,0.535,1.814,0.485c6.389-0.507,12.751-1.216,18.866-3.256
		c0.894-0.298,2.188-0.315,2.506-1.635c0.49-0.175,0.981-0.349,1.473-0.523c1.618,0.624,2.499-0.499,3.449-1.456
		c0.169-0.018,0.337-0.034,0.504-0.051c0.697,0.014,1.175-0.321,1.469-0.937c0.17-0.017,0.337-0.034,0.504-0.051
		c1.768-0.53,3.418-1.235,4.438-2.906c0.165-0.018,0.33-0.036,0.494-0.054c2.231-1.314,4.715-2.327,5.895-4.904
		c0.338-0.338,0.676-0.676,1.014-1.014c1.905-0.707,3.213-2.014,3.92-3.919c0.338-0.339,0.676-0.676,1.014-1.015
		c2.577-1.18,3.59-3.663,4.904-5.894c0.017-0.165,0.036-0.33,0.054-0.494c1.67-1.022,2.375-2.672,2.906-4.438
		c0.183-0.494,0.366-0.987,0.548-1.481c0.598-0.058,0.92-0.375,0.931-0.985c0.019-0.33,0.036-0.659,0.055-0.989
		c0.417-0.08,0.75-0.252,0.921-0.687c1.986-5.043,4.031-10.08,4.441-15.557c0.098-1.302,1.217-2.633,0.058-3.958
		C191.2,135.306,191.278,133,191.357,130.693z"/>
	<path fill-rule="evenodd" clip-rule="evenodd" fill="#DEDAD0" d="M161.006,188.899c-2.725,2.321-5.947,3.59-9.372,4.427
		c0.153-1.188,1.273-1.158,2.017-1.454C156.107,190.893,158.327,189.321,161.006,188.899z"/>
	<path fill-rule="evenodd" clip-rule="evenodd" fill="#DEDAD0" d="M110.691,193.817c-2.14-0.651-4.279-1.302-6.418-1.952
		c-0.164-0.007-0.327-0.011-0.49-0.016c-0.292-0.632-0.78-0.965-1.483-0.969c-0.325-0.329-0.651-0.66-0.977-0.989
		C104.7,190.592,107.911,191.691,110.691,193.817z"/>
	<path fill-rule="evenodd" clip-rule="evenodd" fill="#DEDAD0" d="M145.715,194.813c-2.042,0.947-4.08,1.926-6.414,0.995
		C141.396,195.208,143.476,194.5,145.715,194.813z"/>
	<path fill-rule="evenodd" clip-rule="evenodd" fill="#DEDAD0" d="M174.824,178.543c-0.728,1.818-1.823,3.218-3.941,3.444
		C172.021,180.638,172.961,179.063,174.824,178.543z"/>
	<path fill-rule="evenodd" clip-rule="evenodd" fill="#DEDAD0" d="M180.245,172.624c-0.226,2.119-1.625,3.214-3.443,3.94
		C177.322,174.703,178.897,173.763,180.245,172.624z"/>
	<path fill-rule="evenodd" clip-rule="evenodd" fill="#DEDAD0" d="M170.871,181.996c-0.586,1.982-2.317,2.651-3.944,3.438
		C167.515,183.454,169.247,182.787,170.871,181.996z"/>
	<path fill-rule="evenodd" clip-rule="evenodd" fill="#DEDAD0" d="M121.051,196.283c-1.418-0.216-3.057,0.173-3.956-1.453
		C118.43,195.271,120.162,194.63,121.051,196.283z"/>
	<path fill-rule="evenodd" clip-rule="evenodd" fill="#DEDAD0" d="M164.956,186.437c-0.637,1.544-2.133,1.876-3.456,2.45
		C161.915,187.029,163.583,186.94,164.956,186.437z"/>
	<path fill-rule="evenodd" clip-rule="evenodd" fill="#DEDAD0" d="M150.648,193.333c-1.177,0.864-2.59,1.096-3.948,1.473
		C147.633,193.286,149.019,192.984,150.648,193.333z"/>
	<path fill-rule="evenodd" clip-rule="evenodd" fill="#DEDAD0" d="M182.217,170.156c0.034,1.368-0.558,2.239-1.963,2.455
		C180.39,171.379,181.297,170.762,182.217,170.156z"/>
	<path fill-rule="evenodd" clip-rule="evenodd" fill="#DEDAD0" d="M186.164,164.236c-0.062,1.074-0.12,2.151-1.471,2.455
		C184.861,165.681,185.189,164.765,186.164,164.236z"/>
	<path fill-rule="evenodd" clip-rule="evenodd" fill="#DEDAD0" d="M137.828,195.813c-0.388,1.273-1.113,1.176-1.979,0.485
		C136.386,195.639,137.135,195.84,137.828,195.813z"/>
	<path fill-rule="evenodd" clip-rule="evenodd" fill="#DEDAD0" d="M183.696,168.182c0.041,1.052-0.236,1.865-1.47,1.963
		C182.283,169.165,182.91,168.613,183.696,168.182z"/>
	<path fill-rule="evenodd" clip-rule="evenodd" fill="#DEDAD0" d="M124.504,196.776c-0.55,0.009-1.106,0.038-1.482-0.484
		C123.81,195.556,124.28,195.79,124.504,196.776z"/>
	<path fill-rule="evenodd" clip-rule="evenodd" fill="#DEDAD0" d="M101.306,189.878c-0.327,0-0.654,0-0.981,0.001
		c-0.163-0.324-0.325-0.649-0.487-0.975C100.552,188.891,101.226,188.937,101.306,189.878z"/>
	<path fill-rule="evenodd" clip-rule="evenodd" fill="#E6E3DB" d="M99.838,188.904c0.162,0.325,0.324,0.65,0.487,0.975
		c-0.715,0.012-1.385-0.044-1.47-0.978C99.182,188.902,99.51,188.903,99.838,188.904z"/>
	<path fill-rule="evenodd" clip-rule="evenodd" fill="#DEDAD0" d="M187.149,162.751c0.013,0.716-0.042,1.386-0.977,1.473
		C186.188,163.527,186.52,163.04,187.149,162.751z"/>
	<path fill-rule="evenodd" clip-rule="evenodd" fill="#E6E3DB" d="M98.841,188.89c-0.712,0.015-1.379-0.04-1.467-0.971
		C98.071,187.928,98.559,188.254,98.841,188.89z"/>
	<path fill-rule="evenodd" clip-rule="evenodd" fill="#DEDAD0" d="M184.683,166.702c0.014,0.716-0.046,1.383-0.977,1.469
		C183.723,167.477,184.049,166.985,184.683,166.702z"/>
	<path fill-rule="evenodd" clip-rule="evenodd" fill="#E6E3DB" d="M97.357,187.905c-0.713,0.014-1.377-0.046-1.463-0.975
		C96.591,186.942,97.08,187.266,97.357,187.905z"/>
	<path fill-rule="evenodd" clip-rule="evenodd" fill="#DEDAD0" d="M113.652,194.802c-0.614-0.026-0.939-0.354-0.997-0.959
		C113.271,193.868,113.598,194.194,113.652,194.802z"/>
	<path fill-rule="evenodd" clip-rule="evenodd" fill="#E6E3DB" d="M102.299,190.881c0.703,0.004,1.191,0.337,1.483,0.969
		C103.066,191.866,102.4,191.807,102.299,190.881z"/>
	<path fill-rule="evenodd" clip-rule="evenodd" fill="#EAE8E2" d="M200.963,221.944c0.547-2.747-0.488-4.725-2.651-6.472
		c-1.064-0.859-3.178-1.702-1.787-3.882c0.188,0.265,0.347,0.555,0.565,0.79c1.99,2.139,4.125,2.677,6.581,1.673
		c2.123-0.866,3.813-3.336,3.688-5.563c-0.151-2.64-1.58-4.36-4.045-5.254c-0.458-0.167-0.912-0.347-1.368-0.521
		c-0.49-0.002-0.981-0.005-1.473-0.007c1.401-0.922,4.007,0.109,4.309-2.637c0-0.005,0.518-0.052,0.652,0.073
		c1.247,1.138,2.205,1.566,3.186-0.431c0.439-0.894,1.381-0.229,1.58,0.564c0.172,0.684,0.16,1.508-0.06,2.175
		c-0.521,1.585-0.216,2.452,1.862,2.207c-1.308,1.157-3.222,1.734-2.394,3.723c0.438,1.053,1.396,2.097,2.711,1.571
		c1.714-0.685,2.575-2.019,1.365-4.195c3.269,1.618,3.53,2.35,1.9,4.807c-0.887,1.334-1.17,2.87-1.736,4.311
		c-0.241,0.618-0.625,1.281-1.316,1.358c-0.856,0.096-0.562-0.813-0.831-1.249c-0.76-1.222-1.604-2.508-3.299-1.568
		c-1.43,0.794-1.924,2.015-0.795,3.473c0.821,1.057,0.651,1.479-0.734,1.664c-1.042,0.14-2.099,0.281-1.21,2.109
		c0.372,0.768-1.546,2.031-2.724,2.763l0.003,0.001c-0.098-1.239-0.915-1.517-1.97-1.476L200.963,221.944z M208.382,204.374
		c-0.467,0.016-0.744,0.287-0.813,0.715c-0.074,0.474,0.243,0.796,0.65,0.856c0.546,0.082,0.934-0.226,0.925-0.811
		C209.138,204.688,208.835,204.431,208.382,204.374z"/>
	<path fill-rule="evenodd" clip-rule="evenodd" fill="#DEDAD0" d="M200.473,202.71c0.491,0.002,0.982,0.005,1.473,0.007
		c0.027,2.269,0.48,4.788-2.384,5.764c-1.368,0.466-2.389,1.351-3.525,2.114c-0.888-1.478-0.389-2.955-0.001-4.433
		c0.003-0.16,0.004-0.32,0.006-0.482c0.996-0.65,1.82-1.474,2.47-2.472c0.162-0.002,0.324-0.004,0.485-0.007
		c0.332-0.162,0.662-0.325,0.994-0.487C200.151,202.713,200.313,202.712,200.473,202.71z"/>
	<path fill-rule="evenodd" clip-rule="evenodd" fill="#EAE8E2" d="M200.472,225.4c-0.836-1.094-1.756-2.138-2.476-3.304
		c-0.321-0.521-1.447-1.04-0.584-1.829c0.692-0.633,1.104,0.383,1.647,0.628c0.659,0.296,1.271,0.694,1.904,1.049
		c-0.001,0,0.009,0.009,0.009,0.009c0.023,1.336,0.325,2.302,1.97,1.476l-0.003-0.001
		C203.118,225.337,201.276,224.718,200.472,225.4z"/>
	<path fill-rule="evenodd" clip-rule="evenodd" fill="#E6E3DB" d="M198.511,203.208c-0.649,0.998-1.474,1.821-2.47,2.472
		C196.021,204.013,196.845,203.189,198.511,203.208z"/>
	<path fill-rule="evenodd" clip-rule="evenodd" fill="#E6E3DB" d="M159.419,216.811c0.017-0.049,0.034-0.097,0.052-0.145
		c0.055,0.019,0.12,0.028,0.156,0.065c0.017,0.017-0.029,0.092-0.045,0.141C159.527,216.851,159.474,216.832,159.419,216.811z"/>
	<path fill-rule="evenodd" clip-rule="evenodd" fill="#E6E3DB" d="M212.383,189.045c0.012,0.05,0.05,0.127,0.032,0.144
		c-0.037,0.036-0.105,0.039-0.16,0.055c-0.012-0.05-0.051-0.126-0.032-0.145C212.259,189.063,212.328,189.062,212.383,189.045z"/>
	<path fill-rule="evenodd" clip-rule="evenodd" fill="#EAE8E2" d="M206.87,198.121c-0.043-0.038-0.085-0.077-0.129-0.115
		c0.052-0.028,0.106-0.081,0.154-0.076c0.047,0.004,0.087,0.069,0.13,0.108C206.975,198.064,206.922,198.093,206.87,198.121z"/>
	<path fill-rule="evenodd" clip-rule="evenodd" fill="#E6E3DB" d="M199.99,202.714c-0.332,0.162-0.662,0.325-0.994,0.487
		C199.328,203.039,199.658,202.876,199.99,202.714z"/>
	<path fill-rule="evenodd" clip-rule="evenodd" fill="#E1E0DB" d="M196.036,210.595c1.137-0.764,2.157-1.648,3.525-2.114
		c2.864-0.976,2.411-3.495,2.384-5.764c0.456,0.174,0.91,0.354,1.368,0.521c2.465,0.894,3.894,2.614,4.045,5.254
		c0.126,2.227-1.564,4.696-3.688,5.563c-2.456,1.004-4.591,0.466-6.581-1.673c-0.219-0.235-0.378-0.525-0.565-0.79
		C196.362,211.258,196.199,210.927,196.036,210.595z"/>
	<path fill-rule="evenodd" clip-rule="evenodd" fill="#E1E0DB" d="M196.92,216.99c0.035,0.971-0.501,1.37-1.13,1.606
		c-3.456,1.307-6.567,3.405-10.151,4.411c-0.584,0.164-1.336,0.763-1.722-0.092c-0.409-0.913,0.448-1.282,1.104-1.612
		c0.584-0.293,1.189-0.697,1.809-0.744c2.682-0.207,4.639-1.424,5.92-3.8c0.577-1.07,1.566-1.426,2.733-1.127
		C196.258,215.829,196.707,216.402,196.92,216.99z"/>
	<path fill-rule="evenodd" clip-rule="evenodd" fill="#E1E0DB" d="M229.586,172.09c-0.338,0.8-0.067,2.049-1.288,2.308
		c-0.569,0.121-0.698-0.594-0.66-1.087c0.072-0.988,0.232-2.072,1.323-2.369C229.563,170.777,229.511,171.566,229.586,172.09z"/>
	<path fill-rule="evenodd" clip-rule="evenodd" fill="#E1E0DB" d="M218.27,195.999c0.44,0.074,0.747,0.321,0.742,0.775
		c-0.006,0.583-0.399,0.884-0.938,0.795c-0.403-0.067-0.711-0.409-0.628-0.873C217.521,196.274,217.801,196.002,218.27,195.999z"/>
	<path fill-rule="evenodd" clip-rule="evenodd" fill="#EAE8E2" d="M158.054,227.86c0,1.812,0,3.623,0,5.434
		C157.248,231.483,157.257,229.672,158.054,227.86z"/>
	<path fill-rule="evenodd" clip-rule="evenodd" fill="#EAE8E2" d="M158.532,226.395c-0.159,0.333-0.319,0.667-0.479,1
		C158.213,227.062,158.374,226.728,158.532,226.395z"/>
	<path fill-rule="evenodd" clip-rule="evenodd" fill="#E1E0DB" d="M185.666,236.245c-0.162,0.005-0.324,0.012-0.485,0.02
		C185.333,236.019,185.494,236,185.666,236.245z"/>
	<path fill-rule="evenodd" clip-rule="evenodd" fill="#E1E0DB" d="M184.697,236.747c-0.007,0.162-0.015,0.325-0.019,0.486
		c-0.052-0.115-0.118-0.229-0.146-0.351C184.525,236.853,184.639,236.793,184.697,236.747z"/>
	<path fill-rule="evenodd" clip-rule="evenodd" fill="#FBDC5A" d="M121.291,102.126c2.207-0.303,4.467,0.164,6.726,0.506
		c1.183,0.179,2.421,0.333,2.426,2.132c0.001,1.564-0.706,2.411-2.086,2.488c-5.051,0.279-10.029,1.397-15.113,1.239
		c-0.975-0.03-1.595-0.347-1.545-1.421c0.079-1.674-0.311-3.599,1.953-4.234C116.113,102.143,118.634,101.927,121.291,102.126z"/>
	<path fill-rule="evenodd" clip-rule="evenodd" fill="#FBDC5A" d="M92.311,84.177c2.424-4.887,7.906-7.16,13.965-5.787
		C100.952,78.729,96.757,81.684,92.311,84.177z"/>
	<path fill-rule="evenodd" clip-rule="evenodd" fill="#E58B13" d="M191.357,130.693c-0.079,2.307-0.157,4.612-0.236,6.92
		c-1.057,5.991-2.978,11.716-5.337,17.307c-1.073,0.902-1.169,2.359-1.953,3.427c-1.522,0.205-1.565,1.331-1.55,2.492l0.051,0.05
		c-1.741-0.12-2.066,1.526-2.768,2.466c-10.054,13.475-23.3,21.896-39.794,24.996c-16.115,3.028-31.053-0.244-44.873-8.998
		c-7.549-4.781-13.575-10.998-18.138-18.663c-0.386-0.648-0.979-1.388-0.299-1.972c0.682-0.586,1.181,0.299,1.556,0.741
		c4.755,5.599,11.295,8.61,17.548,11.967c8.999,4.829,18.556,8.376,28.734,9.423c9.864,1.015,19.528-0.167,28.747-4.438
		c11.238-5.205,20.359-12.798,27.288-22.986c4.191-6.161,6.686-13.133,8.863-20.215
		C189.532,132.112,189.582,130.619,191.357,130.693z"/>
	<path fill-rule="evenodd" clip-rule="evenodd" fill="#C3BBA8" d="M183.831,158.347c0.784-1.067,0.88-2.524,1.953-3.427
		c0.538,0.981-0.434,1.919-0.083,2.896c-0.019,0.33-0.036,0.659-0.055,0.989c-0.598,0.056-0.922,0.371-0.931,0.985
		c-0.182,0.494-0.365,0.987-0.547,1.481c-1.84,0.909-2.383,2.666-2.907,4.438c-0.018,0.164-0.037,0.329-0.054,0.493
		c-2.534,1.216-3.546,3.701-4.904,5.895c-0.338,0.339-0.676,0.676-1.014,1.015c-1.873,0.739-3.18,2.046-3.92,3.919
		c-0.338,0.338-0.676,0.676-1.013,1.014c-2.194,1.357-4.678,2.37-5.896,4.904c-0.164,0.018-0.329,0.036-0.494,0.054
		c-1.678,0.667-3.713,0.785-4.438,2.906c-0.167,0.017-0.334,0.034-0.503,0.05c-0.713-0.038-1.363,0.021-1.47,0.938
		c-0.167,0.017-0.335,0.033-0.504,0.051c-1.301,0.126-2.62,0.209-3.449,1.456c-0.491,0.175-0.982,0.349-1.473,0.523
		c-5.89,1.668-11.785,3.193-17.958,3.585c-1.692,0.108-3.616-0.211-5.229,0.82c-0.496-0.008-0.991-0.016-1.485-0.022
		c-0.462-1.507-1.73-0.78-2.668-0.958c-2.75-0.521-5.79,0.226-8.176-1.88c4.557,0.471,9.095,1.121,13.705,0.923
		c17.181-0.734,31.799-7.156,43.743-19.574c3.188-3.315,6.149-6.805,8.269-10.932c0,0-0.051-0.05-0.052-0.05
		C183.176,160.243,183.505,159.296,183.831,158.347z"/>
	<path fill-rule="evenodd" clip-rule="evenodd" fill="#C5BEAB" d="M116.615,190.472c2.386,2.105,5.426,1.359,8.176,1.88
		c0.938,0.178,2.206-0.549,2.668,0.958c-9.017,0.179-17.32-2.438-25.269-6.446c-0.651-0.328-1.385-0.607-1.304-1.557
		C106.012,187.385,111.198,189.281,116.615,190.472z"/>
	<path fill-rule="evenodd" clip-rule="evenodd" fill="#C5BEAB" d="M185.701,157.815c-0.351-0.977,0.621-1.914,0.083-2.896
		c2.359-5.591,4.28-11.315,5.337-17.307c1.159,1.326,0.04,2.657-0.058,3.959c-0.41,5.477-2.455,10.514-4.441,15.557
		C186.451,157.563,186.118,157.735,185.701,157.815z"/>
	<path fill-rule="evenodd" clip-rule="evenodd" fill="#C5BEAB" d="M128.944,193.332c1.612-1.031,3.536-0.712,5.229-0.82
		c6.173-0.392,12.068-1.917,17.958-3.585c-0.318,1.319-1.612,1.337-2.506,1.635c-6.115,2.04-12.478,2.749-18.866,3.256
		C130.117,193.867,129.441,193.896,128.944,193.332z"/>
	<path fill-rule="evenodd" clip-rule="evenodd" fill="#C5BEAB" d="M176.304,172.098c1.358-2.193,2.37-4.679,4.904-5.895
		C179.894,168.435,178.881,170.918,176.304,172.098z"/>
	<path fill-rule="evenodd" clip-rule="evenodd" fill="#C5BEAB" d="M164.462,182.949c1.218-2.534,3.701-3.547,5.896-4.904
		C169.177,180.622,166.693,181.635,164.462,182.949z"/>
	<path fill-rule="evenodd" clip-rule="evenodd" fill="#C5BEAB" d="M171.37,177.031c0.74-1.873,2.047-3.18,3.92-3.919
		C174.583,175.018,173.275,176.324,171.37,177.031z"/>
	<path fill-rule="evenodd" clip-rule="evenodd" fill="#C5BEAB" d="M159.529,185.909c0.726-2.121,2.761-2.239,4.438-2.906
		C162.947,184.674,161.297,185.379,159.529,185.909z"/>
	<path fill-rule="evenodd" clip-rule="evenodd" fill="#C5BEAB" d="M181.262,165.71c0.524-1.772,1.067-3.529,2.907-4.438
		C183.637,163.038,182.932,164.688,181.262,165.71z"/>
	<path fill-rule="evenodd" clip-rule="evenodd" fill="#C5BEAB" d="M153.604,188.403c0.829-1.247,2.148-1.33,3.449-1.456
		C156.103,187.904,155.222,189.027,153.604,188.403z"/>
	<path fill-rule="evenodd" clip-rule="evenodd" fill="#C5BEAB" d="M157.557,186.896c0.106-0.916,0.757-0.976,1.47-0.938
		C158.731,186.575,158.254,186.91,157.557,186.896z"/>
	<path fill-rule="evenodd" clip-rule="evenodd" fill="#C5BEAB" d="M184.716,159.79c0.009-0.614,0.333-0.93,0.931-0.985
		C185.636,159.415,185.313,159.732,184.716,159.79z"/>
	<path fill-rule="evenodd" clip-rule="evenodd" fill="#E1E0DB" d="M202.942,223.429c-1.645,0.826-1.946-0.14-1.97-1.476
		C202.027,221.912,202.845,222.189,202.942,223.429z"/>
	<path fill-rule="evenodd" clip-rule="evenodd" fill="#E1E0DB" d="M208.383,204.374c0.452,0.057,0.755,0.313,0.762,0.761
		c0.009,0.585-0.379,0.893-0.925,0.811c-0.407-0.061-0.725-0.383-0.65-0.856C207.638,204.661,207.915,204.39,208.383,204.374z"/>
	<path fill-rule="evenodd" clip-rule="evenodd" fill="#F79D16" d="M183.831,158.347c-0.326,0.949-0.655,1.896-1.551,2.492
		C182.266,159.678,182.309,158.552,183.831,158.347z"/>
</g>
</svg>
