<?xml version="1.0" encoding="utf-8"?>
<!-- Generator: Adobe Illustrator 16.0.0, SVG Export Plug-In . SVG Version: 6.00 Build 0)  -->
<!DOCTYPE svg PUBLIC "-//W3C//DTD SVG 1.1//EN" "http://www.w3.org/Graphics/SVG/1.1/DTD/svg11.dtd">
<svg version="1.1" id="Layer_1" xmlns="http://www.w3.org/2000/svg" xmlns:xlink="http://www.w3.org/1999/xlink" x="0px" y="0px"
	 width="566.929px" height="566.929px" viewBox="0 0 566.929 566.929" enable-background="new 0 0 566.929 566.929"
	 xml:space="preserve" >
<g>
	<path d="M380.902,360.243c-3.397,0-6.178-2.782-6.178-6.178v-75.139c0-3.397-2.78-6.177-6.179-6.177h-24.18
		c-3.397,0-6.183,2.779-6.186,6.177l-0.088,75.139c-0.003,3.396-2.787,6.178-6.186,6.178h-6.369c-3.397,0-6.178-2.782-6.178-6.178
		v-94.21c0-3.401,2.781-6.18,6.178-6.18h61.834c3.398,0,6.179,2.778,6.179,6.18v94.21c0,3.396-2.781,6.178-6.179,6.178H380.902z" / >
	<path d="M216.82,501.831c-3.398,0-6.179-2.779-6.179-6.178v-6.469c0-3.396,2.78-6.18,6.179-6.18h15.326
		c3.399,0,6.178-2.779,6.178-6.177v-56.808c0-3.398-2.779-6.181-6.178-6.181H216.82c-3.398,0-6.179-2.778-6.179-6.177v-6.466
		c0-3.398,2.78-6.18,6.179-6.18h61.833c3.399,0,6.179,2.781,6.179,6.18v6.466c0,3.398-2.779,6.177-6.179,6.177h-15.324
		c-3.398,0-6.179,2.782-6.179,6.181v56.808c0,3.397,2.78,6.177,6.179,6.177h15.324c3.399,0,6.179,2.784,6.179,6.18v6.469
		c0,3.398-2.779,6.178-6.179,6.178H216.82z"/>
	<path d="M216.82,360.243c-3.398,0-6.179-2.782-6.179-6.178v-94.459c0-3.398,2.78-6.18,6.179-6.18h61.833
		c3.399,0,6.179,2.781,6.179,6.18v94.459c0,3.396-2.779,6.178-6.179,6.178H216.82z M229.467,334.994c0,3.397,2.78,6.18,6.179,6.18
		h24.183c3.398,0,6.178-2.782,6.178-6.18v-56.313c0-3.4-2.78-6.18-6.178-6.18h-24.183c-3.398,0-6.179,2.779-6.179,6.18V334.994z"/>
	<path d="M434.256,360.243c-3.399,0-6.179-2.782-6.179-6.178v-94.459c0-3.398,2.779-6.18,6.179-6.18h61.833
		c3.398,0,6.179,2.781,6.179,6.18v94.459c0,3.396-2.781,6.178-6.179,6.178H434.256z M446.901,334.994c0,3.397,2.779,6.18,6.179,6.18
		h24.183c3.397,0,6.179-2.782,6.179-6.18v-56.313c0-3.4-2.782-6.18-6.179-6.18H453.08c-3.399,0-6.179,2.779-6.179,6.18V334.994z"/>
	<path d="M434.5,501.831c-3.398,0-6.178-2.779-6.178-6.178v-94.456c0-3.398,2.78-6.18,6.178-6.18h61.835
		c3.397,0,6.178,2.781,6.178,6.18v94.456c0,3.398-2.781,6.178-6.178,6.178H434.5z M447.146,476.582c0,3.397,2.782,6.177,6.179,6.177
		h24.184c3.398,0,6.179-2.779,6.179-6.177v-56.313c0-3.398-2.78-6.177-6.179-6.177h-24.184c-3.397,0-6.179,2.778-6.179,6.177
		V476.582z"/>
	<path d="M163.469,501.831c-3.399,0-6.179-2.779-6.179-6.178v-75.633c0-3.398-2.78-6.181-6.179-6.181h-15.037
		c-3.4,0-6.18,2.782-6.18,6.181v75.633c0,3.398-2.78,6.178-6.179,6.178h-6.468c-3.397,0-6.177-2.779-6.177-6.178v-75.633
		c0-3.398-2.782-6.181-6.179-6.181h-15.04c-3.398,0-6.179,2.782-6.179,6.181v75.633c0,3.398-2.78,6.178-6.178,6.178h-6.467
		c-3.398,0-6.179-2.779-6.179-6.178v-94.456c0-3.398,2.78-6.18,6.179-6.18h98.908c3.398,0,6.178,2.781,6.178,6.18v94.456
		c0,3.398-2.78,6.178-6.178,6.178H163.469z"/>
	<path d="M163.469,360.243c-3.399,0-6.179-2.782-6.179-6.178v-75.633c0-3.398-2.78-6.178-6.179-6.178h-15.037
		c-3.4,0-6.18,2.779-6.18,6.178v75.633c0,3.396-2.78,6.178-6.179,6.178h-6.468c-3.397,0-6.177-2.782-6.177-6.178v-75.633
		c0-3.398-2.782-6.178-6.179-6.178h-15.04c-3.398,0-6.179,2.779-6.179,6.178v75.633c0,3.396-2.78,6.178-6.178,6.178h-6.467
		c-3.398,0-6.179-2.782-6.179-6.178v-94.459c0-3.398,2.78-6.18,6.179-6.18h98.908c3.398,0,6.178,2.781,6.178,6.18v94.459
		c0,3.396-2.78,6.178-6.178,6.178H163.469z"/>
	<path d="M353.219,501.831c-3.397,0-6.178-2.779-6.178-6.178v-75.633c0-3.398-2.78-6.181-6.179-6.181h-15.326
		c-3.397,0-6.178-2.778-6.178-6.177v-6.466c0-3.398,2.781-6.18,6.178-6.18h61.834c3.398,0,6.179,2.781,6.179,6.18v6.466
		c0,3.398-2.781,6.177-6.179,6.177h-15.326c-3.397,0-6.178,2.782-6.178,6.181v75.633c0,3.398-2.782,6.178-6.179,6.178H353.219z"/>
	<path d="M21.866,555.361c-5.664,0-10.298-4.634-10.298-10.298V21.866c0-5.664,4.634-10.298,10.298-10.298h523.199
		c5.664,0,10.297,4.634,10.297,10.298v523.197c0,5.664-4.633,10.298-10.297,10.298H21.866z M30.214,526.415
		c0,5.664,4.634,10.299,10.298,10.299h485.905c5.664,0,10.297-4.635,10.297-10.299V40.512c0-5.667-4.633-10.298-10.297-10.298
		H40.513c-5.664,0-10.298,4.631-10.298,10.298V526.415z"/>
</g>
</svg>
