<?xml version="1.0" encoding="utf-8"?>
<!-- Generator: Adobe Illustrator 16.0.0, SVG Export Plug-In . SVG Version: 6.00 Build 0)  -->
<!DOCTYPE svg PUBLIC "-//W3C//DTD SVG 1.1//EN" "http://www.w3.org/Graphics/SVG/1.1/DTD/svg11.dtd">
<svg version="1.1" id="Layer_1" xmlns="http://www.w3.org/2000/svg" xmlns:xlink="http://www.w3.org/1999/xlink" x="0px" y="0px"
	 width="566.929px" height="566.929px" viewBox="0 0 566.929 566.929" enable-background="new 0 0 566.929 566.929"
	 xml:space="preserve">
<g>
	<path fill="#F7F7F7" d="M379.948,359.49c-3.364,0-6.118-2.754-6.118-6.116v-74.402c0-3.365-2.753-6.117-6.118-6.117h-23.943
		c-3.364,0-6.122,2.752-6.125,6.117l-0.088,74.402c-0.003,3.362-2.76,6.116-6.125,6.116h-6.307c-3.364,0-6.118-2.754-6.118-6.116
		v-93.287c0-3.368,2.754-6.119,6.118-6.119h61.228c3.365,0,6.118,2.751,6.118,6.119v93.287c0,3.362-2.753,6.116-6.118,6.116H379.948
		z"/>
	<path fill="#F7F7F7" d="M217.473,499.691c-3.365,0-6.118-2.752-6.118-6.117v-6.404c0-3.362,2.753-6.12,6.118-6.12h15.175
		c3.366,0,6.118-2.751,6.118-6.116v-56.251c0-3.365-2.752-6.12-6.118-6.12h-15.175c-3.365,0-6.118-2.751-6.118-6.116v-6.402
		c0-3.365,2.753-6.119,6.118-6.119H278.7c3.367,0,6.118,2.754,6.118,6.119v6.402c0,3.365-2.751,6.116-6.118,6.116h-15.174
		c-3.365,0-6.118,2.755-6.118,6.12v56.251c0,3.365,2.753,6.116,6.118,6.116H278.7c3.367,0,6.118,2.758,6.118,6.12v6.404
		c0,3.365-2.751,6.117-6.118,6.117H217.473z"/>
	<path fill="#F7F7F7" d="M217.473,359.49c-3.365,0-6.118-2.754-6.118-6.116v-93.533c0-3.365,2.753-6.12,6.118-6.12H278.7
		c3.367,0,6.118,2.755,6.118,6.12v93.533c0,3.362-2.751,6.116-6.118,6.116H217.473z M229.997,334.489
		c0,3.365,2.753,6.119,6.118,6.119h23.946c3.365,0,6.118-2.754,6.118-6.119v-55.762c0-3.367-2.753-6.119-6.118-6.119h-23.946
		c-3.365,0-6.118,2.752-6.118,6.119V334.489z"/>
	<path fill="#F7F7F7" d="M432.779,359.49c-3.366,0-6.118-2.754-6.118-6.116v-93.533c0-3.365,2.752-6.12,6.118-6.12h61.227
		c3.365,0,6.118,2.755,6.118,6.12v93.533c0,3.362-2.753,6.116-6.118,6.116H432.779z M445.3,334.489c0,3.365,2.752,6.119,6.118,6.119
		h23.946c3.364,0,6.118-2.754,6.118-6.119v-55.762c0-3.367-2.754-6.119-6.118-6.119h-23.946c-3.366,0-6.118,2.752-6.118,6.119
		V334.489z"/>
	<path fill="#F7F7F7" d="M433.021,499.691c-3.365,0-6.118-2.752-6.118-6.117v-93.53c0-3.365,2.753-6.119,6.118-6.119h61.229
		c3.364,0,6.118,2.754,6.118,6.119v93.53c0,3.365-2.754,6.117-6.118,6.117H433.021z M445.543,474.689
		c0,3.365,2.754,6.117,6.118,6.117h23.947c3.365,0,6.118-2.752,6.118-6.117v-55.761c0-3.365-2.753-6.117-6.118-6.117h-23.947
		c-3.364,0-6.118,2.752-6.118,6.117V474.689z"/>
	<path fill="#F7F7F7" d="M164.645,499.691c-3.366,0-6.118-2.752-6.118-6.117v-74.892c0-3.365-2.753-6.12-6.118-6.12h-14.89
		c-3.366,0-6.12,2.755-6.12,6.12v74.892c0,3.365-2.753,6.117-6.118,6.117h-6.405c-3.364,0-6.117-2.752-6.117-6.117v-74.892
		c0-3.365-2.754-6.12-6.118-6.12H91.75c-3.365,0-6.118,2.755-6.118,6.12v74.892c0,3.365-2.753,6.117-6.118,6.117h-6.404
		c-3.365,0-6.118-2.752-6.118-6.117v-93.53c0-3.365,2.753-6.119,6.118-6.119h97.939c3.365,0,6.118,2.754,6.118,6.119v93.53
		c0,3.365-2.753,6.117-6.118,6.117H164.645z"/>
	<path fill="#F7F7F7" d="M164.645,359.49c-3.366,0-6.118-2.754-6.118-6.116v-74.893c0-3.365-2.753-6.117-6.118-6.117h-14.89
		c-3.366,0-6.12,2.752-6.12,6.117v74.893c0,3.362-2.753,6.116-6.118,6.116h-6.405c-3.364,0-6.117-2.754-6.117-6.116v-74.893
		c0-3.365-2.754-6.117-6.118-6.117H91.75c-3.365,0-6.118,2.752-6.118,6.117v74.893c0,3.362-2.753,6.116-6.118,6.116h-6.404
		c-3.365,0-6.118-2.754-6.118-6.116v-93.533c0-3.365,2.753-6.12,6.118-6.12h97.939c3.365,0,6.118,2.755,6.118,6.12v93.533
		c0,3.362-2.753,6.116-6.118,6.116H164.645z"/>
	<path fill="#F7F7F7" d="M352.536,499.691c-3.364,0-6.118-2.752-6.118-6.117v-74.892c0-3.365-2.753-6.12-6.118-6.12h-15.175
		c-3.364,0-6.118-2.751-6.118-6.116v-6.402c0-3.365,2.754-6.119,6.118-6.119h61.228c3.365,0,6.118,2.754,6.118,6.119v6.402
		c0,3.365-2.753,6.116-6.118,6.116h-15.175c-3.364,0-6.118,2.755-6.118,6.12v74.892c0,3.365-2.754,6.117-6.118,6.117H352.536z"/>
	<path fill="#F7F7F7" d="M24.428,552.698c-5.608,0-10.197-4.589-10.197-10.197V24.429c0-5.608,4.589-10.197,10.197-10.197h518.074
		c5.608,0,10.196,4.589,10.196,10.197v518.072c0,5.608-4.587,10.197-10.196,10.197H24.428z M32.695,524.035
		c0,5.608,4.589,10.197,10.197,10.197h481.145c5.608,0,10.196-4.589,10.196-10.197V42.892c0-5.611-4.587-10.197-10.196-10.197
		H42.893c-5.608,0-10.197,4.586-10.197,10.197V524.035z"/>
</g>
</svg>
