<?xml version="1.0" encoding="utf-8"?>
<!-- Generator: Adobe Illustrator 16.0.0, SVG Export Plug-In . SVG Version: 6.00 Build 0)  -->
<!DOCTYPE svg PUBLIC "-//W3C//DTD SVG 1.1//EN" "http://www.w3.org/Graphics/SVG/1.1/DTD/svg11.dtd">
<svg version="1.1" id="Layer_1" xmlns="http://www.w3.org/2000/svg" xmlns:xlink="http://www.w3.org/1999/xlink" x="0px" y="0px"
	 width="100px" height="100px" viewBox="0 0 100 100" enable-background="new 0 0 100 100" xml:space="preserve">
<path fill="#F4F4F4" stroke="#FFFFFF" stroke-miterlimit="10" d="M68.143,37.455c-0.488-1.257-1.145-2.326-2.207-3.391
	c-1.066-1.063-2.133-1.72-3.393-2.209c-1.219-0.471-2.611-0.796-4.648-0.888c-2.041-0.095-2.695-0.115-7.895-0.115
	s-5.855,0.021-7.896,0.115c-2.037,0.092-3.428,0.417-4.646,0.888c-1.262,0.489-2.328,1.146-3.395,2.209
	c-1.063,1.064-1.717,2.134-2.205,3.391c-0.473,1.219-0.799,2.612-0.891,4.649c-0.094,2.042-0.117,2.694-0.117,7.895
	s0.023,5.853,0.117,7.895c0.092,2.04,0.418,3.431,0.891,4.648c0.488,1.26,1.143,2.329,2.205,3.392
	c1.066,1.065,2.133,1.721,3.395,2.211c1.219,0.471,2.609,0.796,4.646,0.89c2.041,0.091,2.697,0.115,7.896,0.115
	s5.854-0.024,7.895-0.115c2.037-0.094,3.43-0.419,4.648-0.89c1.26-0.49,2.326-1.146,3.393-2.211
	c1.063-1.063,1.719-2.132,2.207-3.392c0.477-1.218,0.795-2.608,0.889-4.648c0.096-2.042,0.117-2.694,0.117-7.895
	s-0.021-5.853-0.117-7.895C68.938,40.067,68.619,38.674,68.143,37.455z M65.588,57.738c-0.086,1.865-0.398,2.88-0.662,3.556
	c-0.346,0.894-0.76,1.53-1.432,2.199c-0.672,0.671-1.307,1.086-2.201,1.436c-0.678,0.262-1.688,0.571-3.555,0.657
	c-2.02,0.094-2.625,0.112-7.738,0.112c-5.115,0-5.721-0.019-7.738-0.112c-1.869-0.086-2.879-0.396-3.557-0.657
	c-0.893-0.35-1.529-0.765-2.199-1.436c-0.67-0.669-1.086-1.306-1.434-2.199c-0.26-0.676-0.572-1.69-0.66-3.556
	c-0.092-2.021-0.109-2.625-0.109-7.739c0-5.112,0.018-5.718,0.109-7.735c0.088-1.867,0.4-2.882,0.66-3.557
	c0.348-0.893,0.762-1.533,1.434-2.201c0.67-0.67,1.307-1.087,2.199-1.433c0.678-0.264,1.688-0.575,3.557-0.66
	c2.02-0.091,2.623-0.111,7.738-0.111c5.113,0,5.719,0.021,7.738,0.111c1.867,0.085,2.877,0.396,3.555,0.66
	c0.895,0.346,1.529,0.763,2.201,1.433c0.672,0.668,1.086,1.309,1.432,2.201c0.264,0.675,0.576,1.689,0.662,3.557
	c0.09,2.018,0.109,2.623,0.109,7.735C65.697,55.113,65.678,55.717,65.588,57.738z M50,40.169c-5.434,0-9.834,4.398-9.834,9.83
	s4.4,9.834,9.834,9.834c5.432,0,9.832-4.402,9.832-9.834S55.432,40.169,50,40.169z M50,56.384c-3.527,0-6.383-2.859-6.383-6.385
	c0-3.524,2.855-6.383,6.383-6.383c3.525,0,6.381,2.858,6.381,6.383C56.381,53.524,53.525,56.384,50,56.384z M62.52,39.78
	c0,1.267-1.029,2.298-2.299,2.298s-2.297-1.031-2.297-2.298c0-1.271,1.027-2.301,2.297-2.301S62.52,38.51,62.52,39.78z"/>
<g>
	<path fill="none" stroke="#F4F4F4" stroke-width="2" stroke-miterlimit="10" d="M49.999,86.036
		c-19.87,0-36.034-16.166-36.034-36.036s16.164-36.035,36.034-36.035S86.035,30.129,86.035,50S69.869,86.036,49.999,86.036z"/>
</g>
</svg>
