<?xml version="1.0" encoding="utf-8"?>
<!-- Generator: Adobe Illustrator 16.0.0, SVG Export Plug-In . SVG Version: 6.00 Build 0)  -->
<!DOCTYPE svg PUBLIC "-//W3C//DTD SVG 1.1//EN" "http://www.w3.org/Graphics/SVG/1.1/DTD/svg11.dtd">
<svg version="1.1" id="Layer_1" xmlns="http://www.w3.org/2000/svg" xmlns:xlink="http://www.w3.org/1999/xlink" x="0px" y="0px"
	 width="100px" height="100px" viewBox="0 0 100 100" enable-background="new 0 0 100 100" xml:space="preserve">
<g>
	<path fill="none" stroke="#F4F4F4" stroke-width="2" stroke-miterlimit="10" d="M49.999,86.036
		c-19.87,0-36.034-16.166-36.034-36.037c0-19.87,16.164-36.034,36.034-36.034c19.871,0,36.037,16.164,36.037,36.034
		C86.036,69.87,69.87,86.036,49.999,86.036z"/>
	
		<rect x="34.595" y="43.853" fill="#F4F4F4" stroke="#FFFFFF" stroke-width="2" stroke-miterlimit="10" width="6.749" height="21.711"/>
	<path fill="#F4F4F4" stroke="#FFFFFF" stroke-width="2" stroke-miterlimit="10" d="M38.013,34.438
		c-2.179,0-3.596,1.466-3.596,3.374c0,1.866,1.376,3.375,3.508,3.375c2.263,0,3.64-1.509,3.64-3.375
		C41.52,35.903,40.188,34.438,38.013,34.438z"/>
	<path fill="#F4F4F4" stroke="#FFFFFF" stroke-width="2" stroke-miterlimit="10" d="M57.81,43.362c-3.636,0-5.812,2.087-6.702,3.505
		h-0.135l-0.311-3.015h-5.857c0.086,1.951,0.176,4.218,0.176,6.926v14.785h6.749V53.042c0-0.621,0.043-1.243,0.223-1.688
		c0.487-1.242,1.597-2.53,3.462-2.53c2.442,0,3.421,1.91,3.421,4.708v12.031h6.748v-12.83C65.583,46.338,62.255,43.362,57.81,43.362
		z"/>
</g>
</svg>
