<?xml version="1.0" encoding="utf-8"?>
<!-- Generator: Adobe Illustrator 16.0.0, SVG Export Plug-In . SVG Version: 6.00 Build 0)  -->
<!DOCTYPE svg PUBLIC "-//W3C//DTD SVG 1.1//EN" "http://www.w3.org/Graphics/SVG/1.1/DTD/svg11.dtd">
<svg version="1.1" id="Layer_1" xmlns="http://www.w3.org/2000/svg" xmlns:xlink="http://www.w3.org/1999/xlink" x="0px" y="0px"
	 width="100px" height="100px" viewBox="0 0 100 100" enable-background="new 0 0 100 100" xml:space="preserve">
<g>
	<path fill="none" stroke="#F4F4F4" stroke-width="2" stroke-miterlimit="10" d="M49.999,86.035
		c-19.87,0-36.034-16.166-36.034-36.036s16.164-36.035,36.034-36.035s36.036,16.165,36.036,36.035S69.869,86.035,49.999,86.035z"/>
	<path fill="#F4F4F4" stroke="#FFFFFF" stroke-width="2" stroke-miterlimit="10" d="M37.198,36.397
		c-6.699,6.699-7.419,17.105-2.174,24.608l-2.3,7.074l7.072-2.302c7.504,5.245,17.91,4.524,24.608-2.173
		c7.512-7.514,7.512-19.694,0-27.208C56.893,28.887,44.711,28.887,37.198,36.397z M62.161,56.74
		c-0.176,1.223-0.329,1.398-1.308,2.258c-1.047,0.914-2.42,1.271-3.42,1.383c-0.997,0.11-2.218-0.045-4.525-0.934
		c-2.31-0.887-5.015-2.529-7.5-4.859c-2.487-2.33-5.55-7.101-5.638-9.32s0.858-3.75,1.591-4.726
		c0.732-0.978,1.502-0.938,2.832-0.927c0.808,0.009,0.985,0.298,1.153,0.658c0.434,0.934,1.665,3.727,1.776,4.004
		c0.131,0.332,0.363,0.688,0.03,1.465c-0.334,0.775-1.563,2.012-1.563,2.012c-0.242,0.296-0.235,0.614,0.186,1.191
		c0.422,0.576,1.629,2.309,3.484,3.912c1.36,1.176,3.887,2.387,4.29,2.53c0.518,0.185,0.711-0.097,0.711-0.097
		s1.496-1.787,1.939-2.338c0.479-0.598,0.951-0.34,0.951-0.34l4.521,2.174c0.266,0.122,0.393,0.215,0.495,0.334
		c0.147,0.17,0.135,0.51,0.135,0.51L62.161,56.74z"/>
</g>
</svg>
